  0
SECTION
  2
HEADER
  9
$ACADVER
  1
AC1015
  9
$ACADMAINTVER
 70
     6
  9
$DWGCODEPAGE
  3
ANSI_1252
  9
$INSBASE
 10
0.0
 20
0.0
 30
0.0
  9
$EXTMIN
 10
-1207.0798704177
 20
167.502537876
 30
0.0
  9
$EXTMAX
 10
-868.3298704112
 20
606.0025378824
 30
0.0
  9
$LIMMIN
 10
0.0
 20
0.0
  9
$LIMMAX
 10
420.0
 20
297.0
  9
$ORTHOMODE
 70
     0
  9
$REGENMODE
 70
     1
  9
$FILLMODE
 70
     1
  9
$QTEXTMODE
 70
     0
  9
$MIRRTEXT
 70
     1
  9
$LTSCALE
 40
1.0
  9
$ATTMODE
 70
     1
  9
$TEXTSIZE
 40
3.5
  9
$TRACEWID
 40
1.0
  9
$TEXTSTYLE
  7
Standard
  9
$CLAYER
  8
0
  9
$CELTYPE
  6
ByLayer
  9
$CECOLOR
 62
   256
  9
$CELTSCALE
 40
1.0
  9
$DISPSILH
 70
     0
  9
$DIMSCALE
 40
1.0
  9
$DIMASZ
 40
3.302
  9
$DIMEXO
 40
1.27
  9
$DIMDLI
 40
3.75
  9
$DIMRND
 40
0.0
  9
$DIMDLE
 40
0.0
  9
$DIMEXE
 40
3.175
  9
$DIMTP
 40
0.0
  9
$DIMTM
 40
0.0
  9
$DIMTXT
 40
3.5
  9
$DIMCEN
 40
2.5
  9
$DIMTSZ
 40
0.0
  9
$DIMTOL
 70
     0
  9
$DIMLIM
 70
     0
  9
$DIMTIH
 70
     1
  9
$DIMTOH
 70
     1
  9
$DIMSE1
 70
     0
  9
$DIMSE2
 70
     0
  9
$DIMTAD
 70
     1
  9
$DIMZIN
 70
     0
  9
$DIMBLK
  1

  9
$DIMASO
 70
     1
  9
$DIMSHO
 70
     1
  9
$DIMPOST
  1

  9
$DIMAPOST
  1

  9
$DIMALT
 70
     0
  9
$DIMALTD
 70
     3
  9
$DIMALTF
 40
0.0393700787
  9
$DIMLFAC
 40
1.0
  9
$DIMTOFL
 70
     1
  9
$DIMTVP
 40
0.0
  9
$DIMTIX
 70
     0
  9
$DIMSOXD
 70
     0
  9
$DIMSAH
 70
     0
  9
$DIMBLK1
  1

  9
$DIMBLK2
  1

  9
$DIMSTYLE
  2
ISO-25
  9
$DIMCLRD
 70
     0
  9
$DIMCLRE
 70
     0
  9
$DIMCLRT
 70
     0
  9
$DIMTFAC
 40
1.0
  9
$DIMGAP
 40
1.524
  9
$DIMJUST
 70
     0
  9
$DIMSD1
 70
     0
  9
$DIMSD2
 70
     0
  9
$DIMTOLJ
 70
     0
  9
$DIMTZIN
 70
     0
  9
$DIMALTZ
 70
     0
  9
$DIMALTTZ
 70
     0
  9
$DIMUPT
 70
     0
  9
$DIMDEC
 70
     2
  9
$DIMTDEC
 70
     2
  9
$DIMALTU
 70
     2
  9
$DIMALTTD
 70
     3
  9
$DIMTXSTY
  7
Standard
  9
$DIMAUNIT
 70
     0
  9
$DIMADEC
 70
     2
  9
$DIMALTRND
 40
0.0
  9
$DIMAZIN
 70
     0
  9
$DIMDSEP
 70
    44
  9
$DIMATFIT
 70
     3
  9
$DIMFRAC
 70
     0
  9
$DIMLDRBLK
  1

  9
$DIMLUNIT
 70
     2
  9
$DIMLWD
 70
    -2
  9
$DIMLWE
 70
    -2
  9
$DIMTMOVE
 70
     0
  9
$LUNITS
 70
     2
  9
$LUPREC
 70
     2
  9
$SKETCHINC
 40
1.0
  9
$FILLETRAD
 40
10.0
  9
$AUNITS
 70
     0
  9
$AUPREC
 70
     2
  9
$MENU
  1
.
  9
$ELEVATION
 40
0.0
  9
$PELEVATION
 40
0.0
  9
$THICKNESS
 40
0.0
  9
$LIMCHECK
 70
     0
  9
$CHAMFERA
 40
0.0
  9
$CHAMFERB
 40
0.0
  9
$CHAMFERC
 40
0.0
  9
$CHAMFERD
 40
0.0
  9
$SKPOLY
 70
     0
  9
$TDCREATE
 40
2458241.872103287
  9
$TDUCREATE
 40
2458242.038769954
  9
$TDUPDATE
 40
2458241.872447951
  9
$TDUUPDATE
 40
2458242.039114618
  9
$TDINDWG
 40
0.0000000116
  9
$TDUSRTIMER
 40
0.0000000116
  9
$USRTIMER
 70
     1
  9
$ANGBASE
 50
0.0
  9
$ANGDIR
 70
     0
  9
$PDMODE
 70
     0
  9
$PDSIZE
 40
-1.0
  9
$PLINEWID
 40
0.0
  9
$SPLFRAME
 70
     0
  9
$SPLINETYPE
 70
     6
  9
$SPLINESEGS
 70
     8
  9
$HANDSEED
  5
161
  9
$SURFTAB1
 70
     6
  9
$SURFTAB2
 70
     6
  9
$SURFTYPE
 70
     6
  9
$SURFU
 70
     6
  9
$SURFV
 70
     6
  9
$UCSBASE
  2

  9
$UCSNAME
  2

  9
$UCSORG
 10
0.0
 20
0.0
 30
0.0
  9
$UCSXDIR
 10
1.0
 20
0.0
 30
0.0
  9
$UCSYDIR
 10
0.0
 20
1.0
 30
0.0
  9
$UCSORTHOREF
  2

  9
$UCSORTHOVIEW
 70
     0
  9
$UCSORGTOP
 10
0.0
 20
0.0
 30
0.0
  9
$UCSORGBOTTOM
 10
0.0
 20
0.0
 30
0.0
  9
$UCSORGLEFT
 10
0.0
 20
0.0
 30
0.0
  9
$UCSORGRIGHT
 10
0.0
 20
0.0
 30
0.0
  9
$UCSORGFRONT
 10
0.0
 20
0.0
 30
0.0
  9
$UCSORGBACK
 10
0.0
 20
0.0
 30
0.0
  9
$PUCSBASE
  2

  9
$PUCSNAME
  2

  9
$PUCSORG
 10
0.0
 20
0.0
 30
0.0
  9
$PUCSXDIR
 10
1.0
 20
0.0
 30
0.0
  9
$PUCSYDIR
 10
0.0
 20
1.0
 30
0.0
  9
$PUCSORTHOREF
  2

  9
$PUCSORTHOVIEW
 70
     0
  9
$PUCSORGTOP
 10
0.0
 20
0.0
 30
0.0
  9
$PUCSORGBOTTOM
 10
0.0
 20
0.0
 30
0.0
  9
$PUCSORGLEFT
 10
0.0
 20
0.0
 30
0.0
  9
$PUCSORGRIGHT
 10
0.0
 20
0.0
 30
0.0
  9
$PUCSORGFRONT
 10
0.0
 20
0.0
 30
0.0
  9
$PUCSORGBACK
 10
0.0
 20
0.0
 30
0.0
  9
$USERI1
 70
     0
  9
$USERI2
 70
     0
  9
$USERI3
 70
     0
  9
$USERI4
 70
     0
  9
$USERI5
 70
     0
  9
$USERR1
 40
0.0
  9
$USERR2
 40
0.0
  9
$USERR3
 40
0.0
  9
$USERR4
 40
0.0
  9
$USERR5
 40
0.0
  9
$WORLDVIEW
 70
     1
  9
$SHADEDGE
 70
     3
  9
$SHADEDIF
 70
    70
  9
$TILEMODE
 70
     1
  9
$MAXACTVP
 70
    64
  9
$PINSBASE
 10
0.0
 20
0.0
 30
0.0
  9
$PLIMCHECK
 70
     0
  9
$PEXTMIN
 10
1.0000000000E+20
 20
1.0000000000E+20
 30
1.0000000000E+20
  9
$PEXTMAX
 10
-1.0000000000E+20
 20
-1.0000000000E+20
 30
-1.0000000000E+20
  9
$PLIMMIN
 10
0.0
 20
0.0
  9
$PLIMMAX
 10
420.0
 20
297.0
  9
$UNITMODE
 70
     0
  9
$VISRETAIN
 70
     1
  9
$PLINEGEN
 70
     0
  9
$PSLTSCALE
 70
     1
  9
$TREEDEPTH
 70
  3020
  9
$CMLSTYLE
  2
Standard
  9
$CMLJUST
 70
     0
  9
$CMLSCALE
 40
20.0
  9
$PROXYGRAPHICS
 70
     1
  9
$MEASUREMENT
 70
     1
  9
$CELWEIGHT
370
    -1
  9
$ENDCAPS
280
     0
  9
$JOINSTYLE
280
     0
  9
$LWDISPLAY
290
     1
  9
$INSUNITS
 70
     4
  9
$HYPERLINKBASE
  1

  9
$STYLESHEET
  1

  9
$XEDIT
290
     1
  9
$CEPSNTYPE
380
     0
  9
$PSTYLEMODE
290
     1
  9
$FINGERPRINTGUID
  2
{0C6794E3-5E7D-4ECA-9871-C4F47551122F}
  9
$VERSIONGUID
  2
{FAEB1C32-E019-11D5-929B-00C0DF256EC4}
  9
$EXTNAMES
290
     1
  9
$PSVPSCALE
 40
0.0
  9
$OLESTARTUP
290
     0
  0
ENDSEC
  0
SECTION
  2
CLASSES
  0
CLASS
  1
ACDBDICTIONARYWDFLT
  2
AcDbDictionaryWithDefault
  3
ObjectDBX Classes
 90
        0
280
     0
281
     0
  0
CLASS
  1
VISUALSTYLE
  2
AcDbVisualStyle
  3
ObjectDBX Classes
 90
     4095
280
     0
281
     0
  0
CLASS
  1
MATERIAL
  2
AcDbMaterial
  3
ObjectDBX Classes
 90
     1153
280
     0
281
     0
  0
CLASS
  1
SCALE
  2
AcDbScale
  3
ObjectDBX Classes
 90
     1153
280
     0
281
     0
  0
CLASS
  1
TABLESTYLE
  2
AcDbTableStyle
  3
ObjectDBX Classes
 90
     4095
280
     0
281
     0
  0
CLASS
  1
MLEADERSTYLE
  2
AcDbMLeaderStyle
  3
ACDB_MLEADERSTYLE_CLASS
 90
     4095
280
     0
281
     0
  0
CLASS
  1
SUN
  2
AcDbSun
  3
SCENEOE
 90
     1153
280
     0
281
     0
  0
CLASS
  1
ACDBPLACEHOLDER
  2
AcDbPlaceHolder
  3
ObjectDBX Classes
 90
        0
280
     0
281
     0
  0
CLASS
  1
LAYOUT
  2
AcDbLayout
  3
ObjectDBX Classes
 90
        0
280
     0
281
     0
  0
ENDSEC
  0
SECTION
  2
TABLES
  0
TABLE
  2
VPORT
  5
8
330
0
100
AcDbSymbolTable
 70
     1
  0
VPORT
  5
29
330
8
100
AcDbSymbolTableRecord
100
AcDbViewportTableRecord
  2
*Active
 70
     0
 10
0.0
 20
0.0
 11
1.0
 21
1.0
 12
-1037.7048704145
 22
386.7525378792
 13
0.0
 23
0.0
 14
10.0
 24
10.0
 15
10.0
 25
10.0
 16
0.0
 26
0.0
 36
1.0
 17
0.0
 27
0.0
 37
0.0
 40
447.2700000065
 41
0.7725199544
 42
50.0
 43
0.0
 44
0.0
 50
0.0
 51
0.0
 71
     0
 72
   100
 73
     1
 74
     3
 75
     0
 76
     0
 77
     0
 78
     0
281
     0
 65
     1
110
0.0
120
0.0
130
0.0
111
1.0
121
0.0
131
0.0
112
0.0
122
1.0
132
0.0
 79
     0
146
0.0
  0
ENDTAB
  0
TABLE
  2
LTYPE
  5
5
330
0
100
AcDbSymbolTable
 70
     6
  0
LTYPE
  5
14
330
5
100
AcDbSymbolTableRecord
100
AcDbLinetypeTableRecord
  2
ByBlock
 70
     0
  3

 72
    65
 73
     0
 40
0.0
  0
LTYPE
  5
15
330
5
100
AcDbSymbolTableRecord
100
AcDbLinetypeTableRecord
  2
ByLayer
 70
     0
  3

 72
    65
 73
     0
 40
0.0
  0
LTYPE
  5
16
330
5
100
AcDbSymbolTableRecord
100
AcDbLinetypeTableRecord
  2
Continuous
 70
     0
  3
Solid line
 72
    65
 73
     0
 40
0.0
  0
LTYPE
  5
6E
330
5
100
AcDbSymbolTableRecord
100
AcDbLinetypeTableRecord
  2
HIDDEN
 70
     0
  3
Hidden __ __ __ __ __ __ __ __ __ __ __ __ __ __
 72
    65
 73
     2
 40
1.905
 49
1.27
 74
     0
 49
-0.635
 74
     0
  0
LTYPE
  5
6F
330
5
100
AcDbSymbolTableRecord
100
AcDbLinetypeTableRecord
  2
PHANTOM
 70
     0
  3
Phantom ______  __  __  ______  __  __  ______
 72
    65
 73
     6
 40
12.7
 49
6.35
 74
     0
 49
-1.27
 74
     0
 49
1.27
 74
     0
 49
-1.27
 74
     0
 49
1.27
 74
     0
 49
-1.27
 74
     0
  0
LTYPE
  5
70
330
5
100
AcDbSymbolTableRecord
100
AcDbLinetypeTableRecord
  2
CENTER
 70
     0
  3
Center ____ _ ____ _ ____ _ ____ _ ____ _ ____
 72
    65
 73
     4
 40
10.16
 49
6.35
 74
     0
 49
-1.27
 74
     0
 49
1.27
 74
     0
 49
-1.27
 74
     0
  0
LTYPE
  5
71
330
5
100
AcDbSymbolTableRecord
100
AcDbLinetypeTableRecord
  2
CENTERX2
 70
     0
  3
Center (2x) ________  __  ________  __  _____
 72
    65
 73
     4
 40
20.32
 49
12.7
 74
     0
 49
-2.54
 74
     0
 49
2.54
 74
     0
 49
-2.54
 74
     0
  0
LTYPE
  5
72
330
5
100
AcDbSymbolTableRecord
100
AcDbLinetypeTableRecord
  2
DOT2
 70
     0
  3
Dot (.5x) ........................................
 72
    65
 73
     2
 40
0.635
 49
0.0
 74
     0
 49
-0.635
 74
     0
  0
ENDTAB
  0
TABLE
  2
LAYER
  5
2
330
0
100
AcDbSymbolTable
 70
     1
  0
LAYER
  5
10
330
2
100
AcDbSymbolTableRecord
100
AcDbLayerTableRecord
  2
0
 70
     0
 62
     7
  6
Continuous
370
    -3
390
F
  0
ENDTAB
  0
TABLE
  2
STYLE
  5
3
330
0
100
AcDbSymbolTable
 70
     2
  0
STYLE
  5
11
330
3
100
AcDbSymbolTableRecord
100
AcDbTextStyleTableRecord
  2
Standard
 70
     0
 40
0.0
 41
1.0
 50
0.0
 71
     0
 42
3.5
  3
txt
  4

  0
STYLE
  5
15E
330
3
100
AcDbSymbolTableRecord
100
AcDbTextStyleTableRecord
  2
SLDTEXTSTYLE0
 70
     0
 40
0.0
 41
0.7
 50
0.0
 71
     0
 42
3.5
  3
TXT
  4

  0
ENDTAB
  0
TABLE
  2
VIEW
  5
6
330
0
100
AcDbSymbolTable
 70
     0
  0
ENDTAB
  0
TABLE
  2
UCS
  5
7
330
0
100
AcDbSymbolTable
 70
     0
  0
ENDTAB
  0
TABLE
  2
APPID
  5
9
330
0
100
AcDbSymbolTable
 70
     1
  0
APPID
  5
12
330
9
100
AcDbSymbolTableRecord
100
AcDbRegAppTableRecord
  2
ACAD
 70
     0
  0
ENDTAB
  0
TABLE
  2
DIMSTYLE
  5
A
330
0
100
AcDbSymbolTable
 70
     1
100
AcDbDimStyleTable
  0
DIMSTYLE
105
27
330
A
100
AcDbSymbolTableRecord
100
AcDbDimStyleTableRecord
  2
ISO-25
 70
     0
 41
2.5
 42
0.625
 43
3.75
 44
1.25
 73
     0
 74
     0
 77
     1
 78
     8
140
2.5
141
2.5
143
0.0393700787
147
0.625
171
     3
172
     1
178
     0
271
     2
272
     2
274
     3
278
    44
283
     0
284
     8
340
11
  0
ENDTAB
  0
TABLE
  2
BLOCK_RECORD
  5
1
330
0
100
AcDbSymbolTable
 70
     1
  0
BLOCK_RECORD
  5
1F
330
1
100
AcDbSymbolTableRecord
100
AcDbBlockTableRecord
  2
*Model_Space
340
22
  0
BLOCK_RECORD
  5
1B
330
1
100
AcDbSymbolTableRecord
100
AcDbBlockTableRecord
  2
*Paper_Space
340
1E
  0
BLOCK_RECORD
  5
23
330
1
100
AcDbSymbolTableRecord
100
AcDbBlockTableRecord
  2
*Paper_Space0
340
26
  0
ENDTAB
  0
ENDSEC
  0
SECTION
  2
BLOCKS
  0
BLOCK
  5
20
330
1F
100
AcDbEntity
  8
0
100
AcDbBlockBegin
  2
*Model_Space
 70
     0
 10
0.0
 20
0.0
 30
0.0
  3
*Model_Space
  1

  0
ENDBLK
  5
21
330
1F
100
AcDbEntity
  8
0
100
AcDbBlockEnd
  0
BLOCK
  5
1C
330
1B
100
AcDbEntity
 67
     1
  8
0
100
AcDbBlockBegin
  2
*Paper_Space
 70
     0
 10
0.0
 20
0.0
 30
0.0
  3
*Paper_Space
  1

  0
ENDBLK
  5
1D
330
1B
100
AcDbEntity
 67
     1
  8
0
100
AcDbBlockEnd
  0
BLOCK
  5
24
330
23
100
AcDbEntity
  8
0
100
AcDbBlockBegin
  2
*Paper_Space0
 70
     0
 10
0.0
 20
0.0
 30
0.0
  3
*Paper_Space0
  1

  0
ENDBLK
  5
25
330
23
100
AcDbEntity
  8
0
100
AcDbBlockEnd
  0
ENDSEC
  0
SECTION
  2
ENTITIES
  0
CIRCLE
  5
73
330
1F
100
AcDbEntity
  8
0
  6
Continuous
 62
     7
100
AcDbCircle
 10
-1202.0798704177
 20
172.502537876
 30
0.0
 40
2.399999999999969
  0
CIRCLE
  5
74
330
1F
100
AcDbEntity
  8
0
  6
Continuous
 62
     7
100
AcDbCircle
 10
-1202.0798704177
 20
601.0025378824
 30
0.0
 40
2.399999999999996
  0
CIRCLE
  5
75
330
1F
100
AcDbEntity
  8
0
  6
Continuous
 62
     7
100
AcDbCircle
 10
-1037.7048704145
 20
599.2525378771
 30
0.0
 40
2.399999999999887
  0
CIRCLE
  5
76
330
1F
100
AcDbEntity
  8
0
  6
Continuous
 62
     7
100
AcDbCircle
 10
-873.3298704112
 20
601.0025378824
 30
0.0
 40
2.399999999999996
  0
CIRCLE
  5
77
330
1F
100
AcDbEntity
  8
0
  6
Continuous
 62
     7
100
AcDbCircle
 10
-873.3298704129
 20
172.502537876
 30
0.0
 40
2.399999999999969
  0
CIRCLE
  5
78
330
1F
100
AcDbEntity
  8
0
  6
Continuous
 62
     7
100
AcDbCircle
 10
-1037.7048704145
 20
174.2525378743
 30
0.0
 40
2.399999999999996
  0
ARC
  5
79
330
1F
100
AcDbEntity
  8
0
  6
CENTERX2
 62
     7
100
AcDbCircle
 10
-1031.9898704112
 20
548.5025378824
 30
0.0
 40
3.174999999998136
100
AcDbArc
 50
270.0
 51
90.0
  0
ARC
  5
7A
330
1F
100
AcDbEntity
  8
0
  6
CENTERX2
 62
     7
100
AcDbCircle
 10
-1043.4198704112
 20
548.5025378824
 30
0.0
 40
3.174999999998136
100
AcDbArc
 50
90.0
 51
270.0
  0
ARC
  5
7B
330
1F
100
AcDbEntity
  8
0
  6
CENTERX2
 62
     7
100
AcDbCircle
 10
-1056.9898704112
 20
548.5025378824
 30
0.0
 40
3.174999999998249
100
AcDbArc
 50
270.0
 51
90.0
  0
ARC
  5
7C
330
1F
100
AcDbEntity
  8
0
  6
CENTERX2
 62
     7
100
AcDbCircle
 10
-1068.4198704112
 20
548.5025378824
 30
0.0
 40
3.174999999998136
100
AcDbArc
 50
90.0
 51
270.0
  0
ARC
  5
7D
330
1F
100
AcDbEntity
  8
0
  6
CENTERX2
 62
     7
100
AcDbCircle
 10
-1081.9898704112
 20
548.5025378824
 30
0.0
 40
3.174999999998249
100
AcDbArc
 50
270.0
 51
90.0
  0
ARC
  5
7E
330
1F
100
AcDbEntity
  8
0
  6
CENTERX2
 62
     7
100
AcDbCircle
 10
-1093.4198704112
 20
548.5025378824
 30
0.0
 40
3.174999999998249
100
AcDbArc
 50
90.0
 51
270.0
  0
ARC
  5
7F
330
1F
100
AcDbEntity
  8
0
  6
CENTERX2
 62
     7
100
AcDbCircle
 10
-1106.9898704112
 20
548.5025378824
 30
0.0
 40
3.174999999998249
100
AcDbArc
 50
270.0
 51
90.0
  0
ARC
  5
80
330
1F
100
AcDbEntity
  8
0
  6
CENTERX2
 62
     7
100
AcDbCircle
 10
-1118.4198704112
 20
548.5025378824
 30
0.0
 40
3.174999999998136
100
AcDbArc
 50
90.0
 51
270.0
  0
ARC
  5
81
330
1F
100
AcDbEntity
  8
0
  6
CENTERX2
 62
     7
100
AcDbCircle
 10
-1131.9898704112
 20
548.5025378824
 30
0.0
 40
3.174999999998022
100
AcDbArc
 50
270.0
 51
90.0
  0
ARC
  5
82
330
1F
100
AcDbEntity
  8
0
  6
CENTERX2
 62
     7
100
AcDbCircle
 10
-1143.4198704112
 20
548.5025378824
 30
0.0
 40
3.174999999998022
100
AcDbArc
 50
90.0
 51
270.0
  0
ARC
  5
83
330
1F
100
AcDbEntity
  8
0
  6
CENTERX2
 62
     7
100
AcDbCircle
 10
-1156.9898704112
 20
548.5025378824
 30
0.0
 40
3.174999999998022
100
AcDbArc
 50
270.0
 51
90.0
  0
ARC
  5
84
330
1F
100
AcDbEntity
  8
0
  6
CENTERX2
 62
     7
100
AcDbCircle
 10
-1168.4198704112
 20
548.5025378824
 30
0.0
 40
3.174999999998022
100
AcDbArc
 50
90.0
 51
270.0
  0
ARC
  5
85
330
1F
100
AcDbEntity
  8
0
  6
CENTERX2
 62
     7
100
AcDbCircle
 10
-1006.9898704112
 20
548.5025378824
 30
0.0
 40
3.174999999998249
100
AcDbArc
 50
270.0
 51
90.0
  0
ARC
  5
86
330
1F
100
AcDbEntity
  8
0
  6
CENTERX2
 62
     7
100
AcDbCircle
 10
-1018.4198704112
 20
548.5025378824
 30
0.0
 40
3.17499999999859
100
AcDbArc
 50
90.0
 51
270.0
  0
ARC
  5
87
330
1F
100
AcDbEntity
  8
0
  6
CENTERX2
 62
     7
100
AcDbCircle
 10
-981.9898704112
 20
548.5025378824
 30
0.0
 40
3.174999999998363
100
AcDbArc
 50
270.0
 51
90.0
  0
ARC
  5
88
330
1F
100
AcDbEntity
  8
0
  6
CENTERX2
 62
     7
100
AcDbCircle
 10
-993.4198704112
 20
548.5025378824
 30
0.0
 40
3.174999999998249
100
AcDbArc
 50
90.0
 51
270.0
  0
ARC
  5
89
330
1F
100
AcDbEntity
  8
0
  6
CENTERX2
 62
     7
100
AcDbCircle
 10
-956.9898704112
 20
548.5025378824
 30
0.0
 40
3.174999999998363
100
AcDbArc
 50
270.0
 51
90.0
  0
ARC
  5
8A
330
1F
100
AcDbEntity
  8
0
  6
CENTERX2
 62
     7
100
AcDbCircle
 10
-968.4198704112
 20
548.5025378824
 30
0.0
 40
3.174999999998477
100
AcDbArc
 50
90.0
 51
270.0
  0
ARC
  5
8B
330
1F
100
AcDbEntity
  8
0
  6
CENTERX2
 62
     7
100
AcDbCircle
 10
-931.9898704112
 20
548.5025378824
 30
0.0
 40
3.174999999998249
100
AcDbArc
 50
270.0
 51
90.0
  0
ARC
  5
8C
330
1F
100
AcDbEntity
  8
0
  6
CENTERX2
 62
     7
100
AcDbCircle
 10
-943.4198704112
 20
548.5025378824
 30
0.0
 40
3.174999999998249
100
AcDbArc
 50
90.0
 51
270.0
  0
ARC
  5
8D
330
1F
100
AcDbEntity
  8
0
  6
CENTERX2
 62
     7
100
AcDbCircle
 10
-906.9898704112
 20
548.5025378824
 30
0.0
 40
3.174999999998477
100
AcDbArc
 50
270.0
 51
90.0
  0
ARC
  5
8E
330
1F
100
AcDbEntity
  8
0
  6
CENTERX2
 62
     7
100
AcDbCircle
 10
-918.4198704112
 20
548.5025378824
 30
0.0
 40
3.174999999998249
100
AcDbArc
 50
90.0
 51
270.0
  0
CIRCLE
  5
8F
330
1F
100
AcDbEntity
  8
0
  6
Continuous
 62
     7
100
AcDbCircle
 10
-1162.7048704112
 20
548.5025378824
 30
0.0
 40
2.399999999999887
  0
CIRCLE
  5
90
330
1F
100
AcDbEntity
  8
0
  6
Continuous
 62
     7
100
AcDbCircle
 10
-1137.7048704112
 20
548.5025378824
 30
0.0
 40
2.399999999999887
  0
CIRCLE
  5
91
330
1F
100
AcDbEntity
  8
0
  6
Continuous
 62
     7
100
AcDbCircle
 10
-1112.7048704112
 20
548.5025378824
 30
0.0
 40
2.399999999999954
  0
CIRCLE
  5
92
330
1F
100
AcDbEntity
  8
0
  6
Continuous
 62
     7
100
AcDbCircle
 10
-1087.7048704112
 20
548.5025378824
 30
0.0
 40
2.399999999999887
  0
CIRCLE
  5
93
330
1F
100
AcDbEntity
  8
0
  6
Continuous
 62
     7
100
AcDbCircle
 10
-1062.7048704112
 20
548.5025378824
 30
0.0
 40
2.399999999999996
  0
CIRCLE
  5
94
330
1F
100
AcDbEntity
  8
0
  6
Continuous
 62
     7
100
AcDbCircle
 10
-1037.7048704112
 20
548.5025378824
 30
0.0
 40
2.399999999999996
  0
CIRCLE
  5
95
330
1F
100
AcDbEntity
  8
0
  6
Continuous
 62
     7
100
AcDbCircle
 10
-1012.7048704112
 20
548.5025378824
 30
0.0
 40
2.399999999999929
  0
CIRCLE
  5
96
330
1F
100
AcDbEntity
  8
0
  6
Continuous
 62
     7
100
AcDbCircle
 10
-987.7048704112
 20
548.5025378824
 30
0.0
 40
2.399999999999996
  0
CIRCLE
  5
97
330
1F
100
AcDbEntity
  8
0
  6
Continuous
 62
     7
100
AcDbCircle
 10
-962.7048704112
 20
548.5025378824
 30
0.0
 40
2.399999999999996
  0
CIRCLE
  5
98
330
1F
100
AcDbEntity
  8
0
  6
Continuous
 62
     7
100
AcDbCircle
 10
-937.7048704112
 20
548.5025378824
 30
0.0
 40
2.39999999999992
  0
CIRCLE
  5
99
330
1F
100
AcDbEntity
  8
0
  6
Continuous
 62
     7
100
AcDbCircle
 10
-912.7048704112
 20
548.5025378824
 30
0.0
 40
2.399999999999996
  0
CIRCLE
  5
9A
330
1F
100
AcDbEntity
  8
0
  6
Continuous
 62
     7
100
AcDbCircle
 10
-1176.4698704177
 20
227.902537876
 30
0.0
 40
1.600000000001369
  0
CIRCLE
  5
9B
330
1F
100
AcDbEntity
  8
0
  6
Continuous
 62
     7
100
AcDbCircle
 10
-1176.4698704177
 20
310.102537876
 30
0.0
 40
1.599999999999961
  0
CIRCLE
  5
9C
330
1F
100
AcDbEntity
  8
0
  6
Continuous
 62
     7
100
AcDbCircle
 10
-1128.2698704177
 20
308.802537876
 30
0.0
 40
1.600000000000813
  0
CIRCLE
  5
9D
330
1F
100
AcDbEntity
  8
0
  6
Continuous
 62
     7
100
AcDbCircle
 10
-1128.2698704177
 20
233.902537876
 30
0.0
 40
1.600000000000922
  0
CIRCLE
  5
9E
330
1F
100
AcDbEntity
  8
0
  6
Continuous
 62
     7
100
AcDbCircle
 10
-1171.3698704177
 20
258.002537876
 30
0.0
 40
1.599999999999961
  0
CIRCLE
  5
9F
330
1F
100
AcDbEntity
  8
0
  6
Continuous
 62
     7
100
AcDbCircle
 10
-1143.4698704177
 20
258.002537876
 30
0.0
 40
1.600000000000082
  0
CIRCLE
  5
A0
330
1F
100
AcDbEntity
  8
0
  6
Continuous
 62
     7
100
AcDbCircle
 10
-1100.0598704178
 20
310.102537876
 30
0.0
 40
1.600000000000082
  0
CIRCLE
  5
A1
330
1F
100
AcDbEntity
  8
0
  6
Continuous
 62
     7
100
AcDbCircle
 10
-1051.8598704178
 20
308.802537876
 30
0.0
 40
1.600000000000082
  0
CIRCLE
  5
A2
330
1F
100
AcDbEntity
  8
0
  6
Continuous
 62
     7
100
AcDbCircle
 10
-1051.8598704178
 20
233.902537876
 30
0.0
 40
1.600000000000082
  0
CIRCLE
  5
A3
330
1F
100
AcDbEntity
  8
0
  6
Continuous
 62
     7
100
AcDbCircle
 10
-1094.9598704178
 20
258.002537876
 30
0.0
 40
1.600000000000015
  0
CIRCLE
  5
A4
330
1F
100
AcDbEntity
  8
0
  6
Continuous
 62
     7
100
AcDbCircle
 10
-1067.0598704178
 20
258.002537876
 30
0.0
 40
1.600000000000015
  0
CIRCLE
  5
A5
330
1F
100
AcDbEntity
  8
0
  6
Continuous
 62
     7
100
AcDbCircle
 10
-1100.0598704178
 20
227.902537876
 30
0.0
 40
1.600000000000055
  0
CIRCLE
  5
A6
330
1F
100
AcDbEntity
  8
0
  6
Continuous
 62
     7
100
AcDbCircle
 10
-1023.6498704179
 20
310.102537876
 30
0.0
 40
1.600000000000015
  0
CIRCLE
  5
A7
330
1F
100
AcDbEntity
  8
0
  6
Continuous
 62
     7
100
AcDbCircle
 10
-975.4498704179
 20
308.802537876
 30
0.0
 40
1.600000000000049
  0
CIRCLE
  5
A8
330
1F
100
AcDbEntity
  8
0
  6
Continuous
 62
     7
100
AcDbCircle
 10
-975.4498704179
 20
233.902537876
 30
0.0
 40
1.600000000000049
  0
CIRCLE
  5
A9
330
1F
100
AcDbEntity
  8
0
  6
Continuous
 62
     7
100
AcDbCircle
 10
-1018.5498704179
 20
258.002537876
 30
0.0
 40
1.599999999999994
  0
CIRCLE
  5
AA
330
1F
100
AcDbEntity
  8
0
  6
Continuous
 62
     7
100
AcDbCircle
 10
-990.6498704179
 20
258.002537876
 30
0.0
 40
1.599999999999994
  0
CIRCLE
  5
AB
330
1F
100
AcDbEntity
  8
0
  6
Continuous
 62
     7
100
AcDbCircle
 10
-1023.6498704179
 20
227.902537876
 30
0.0
 40
1.599999999999988
  0
CIRCLE
  5
AC
330
1F
100
AcDbEntity
  8
0
  6
Continuous
 62
     7
100
AcDbCircle
 10
-947.239870418
 20
310.102537876
 30
0.0
 40
1.599999999999994
  0
CIRCLE
  5
AD
330
1F
100
AcDbEntity
  8
0
  6
Continuous
 62
     7
100
AcDbCircle
 10
-899.039870418
 20
308.802537876
 30
0.0
 40
1.600000000000015
  0
CIRCLE
  5
AE
330
1F
100
AcDbEntity
  8
0
  6
Continuous
 62
     7
100
AcDbCircle
 10
-899.039870418
 20
233.902537876
 30
0.0
 40
1.600000000000022
  0
CIRCLE
  5
AF
330
1F
100
AcDbEntity
  8
0
  6
Continuous
 62
     7
100
AcDbCircle
 10
-942.139870418
 20
258.002537876
 30
0.0
 40
1.600000000000049
  0
CIRCLE
  5
B0
330
1F
100
AcDbEntity
  8
0
  6
Continuous
 62
     7
100
AcDbCircle
 10
-914.239870418
 20
258.002537876
 30
0.0
 40
1.600000000000049
  0
CIRCLE
  5
B1
330
1F
100
AcDbEntity
  8
0
  6
Continuous
 62
     7
100
AcDbCircle
 10
-947.239870418
 20
227.902537876
 30
0.0
 40
1.600000000000015
  0
CIRCLE
  5
B2
330
1F
100
AcDbEntity
  8
0
  6
Continuous
 62
     7
100
AcDbCircle
 10
-1013.7362768783
 20
464.5025378824
 30
0.0
 40
1.600000000000049
  0
CIRCLE
  5
B3
330
1F
100
AcDbEntity
  8
0
  6
Continuous
 62
     7
100
AcDbCircle
 10
-999.8798704177
 20
456.5025378824
 30
0.0
 40
1.599999999999994
  0
CIRCLE
  5
B4
330
1F
100
AcDbEntity
  8
0
  6
Continuous
 62
     7
100
AcDbCircle
 10
-1013.7362768783
 20
448.5025378824
 30
0.0
 40
1.60000000000032
  0
CIRCLE
  5
B5
330
1F
100
AcDbEntity
  8
0
  6
Continuous
 62
     7
100
AcDbCircle
 10
-901.0234639572
 20
464.5025378824
 30
0.0
 40
1.599999999998197
  0
CIRCLE
  5
B6
330
1F
100
AcDbEntity
  8
0
  6
Continuous
 62
     7
100
AcDbCircle
 10
-901.0234639572
 20
448.5025378824
 30
0.0
 40
1.600000000000049
  0
CIRCLE
  5
B7
330
1F
100
AcDbEntity
  8
0
  6
Continuous
 62
     7
100
AcDbCircle
 10
-914.8798704177
 20
456.5025378824
 30
0.0
 40
1.599999999998055
  0
CIRCLE
  5
B8
330
1F
100
AcDbEntity
  8
0
  6
Continuous
 62
     7
100
AcDbCircle
 10
-1141.0798704177
 20
485.0025378824
 30
0.0
 40
1.400000000000051
  0
CIRCLE
  5
B9
330
1F
100
AcDbEntity
  8
0
  6
Continuous
 62
     7
100
AcDbCircle
 10
-1092.0798704177
 20
485.0025378824
 30
0.0
 40
1.39999999999993
  0
CIRCLE
  5
BA
330
1F
100
AcDbEntity
  8
0
  6
Continuous
 62
     7
100
AcDbCircle
 10
-1092.0798704177
 20
427.0025378824
 30
0.0
 40
1.400000000000051
  0
CIRCLE
  5
BB
330
1F
100
AcDbEntity
  8
0
  6
Continuous
 62
     7
100
AcDbCircle
 10
-1141.0798704177
 20
427.0025378824
 30
0.0
 40
1.400000000000051
  0
LINE
  5
BC
330
1F
100
AcDbEntity
  8
0
  6
CENTERX2
 62
     7
100
AcDbLine
 10
-1202.0798704177
 20
172.502537876
 30
0.0
 11
-1202.0798704177
 21
167.502537876
 31
0.0
  0
LINE
  5
BD
330
1F
100
AcDbEntity
  8
0
  6
CENTERX2
 62
     7
100
AcDbLine
 10
-1202.0798704177
 20
172.502537876
 30
0.0
 11
-1207.0798704177
 21
172.502537876
 31
0.0
  0
LINE
  5
BE
330
1F
100
AcDbEntity
  8
0
  6
CENTERX2
 62
     7
100
AcDbLine
 10
-873.3298704112
 20
601.0025378824
 30
0.0
 11
-873.3298704112
 21
606.0025378824
 31
0.0
  0
LINE
  5
BF
330
1F
100
AcDbEntity
  8
0
  6
Continuous
 62
     7
100
AcDbLine
 10
-1207.0798704177
 20
167.502537876
 30
0.0
 11
-1207.0798704177
 21
606.0025378824
 31
0.0
  0
LINE
  5
C0
330
1F
100
AcDbEntity
  8
0
  6
Continuous
 62
     7
100
AcDbLine
 10
-1207.0798704177
 20
167.502537876
 30
0.0
 11
-868.3298704112
 21
167.502537876
 31
0.0
  0
LINE
  5
C1
330
1F
100
AcDbEntity
  8
0
  6
Continuous
 62
     7
100
AcDbLine
 10
-868.3298704112
 20
167.502537876
 30
0.0
 11
-868.3298704112
 21
606.0025378824
 31
0.0
  0
LINE
  5
C2
330
1F
100
AcDbEntity
  8
0
  6
Continuous
 62
     7
100
AcDbLine
 10
-1207.0798704177
 20
606.0025378824
 30
0.0
 11
-868.3298704112
 21
606.0025378824
 31
0.0
  0
LINE
  5
C3
330
1F
100
AcDbEntity
  8
0
  6
CENTERX2
 62
     7
100
AcDbLine
 10
-873.3298704112
 20
601.0025378824
 30
0.0
 11
-868.3298704112
 21
601.0025378824
 31
0.0
  0
LINE
  5
C4
330
1F
100
AcDbEntity
  8
0
  6
CENTERX2
 62
     7
100
AcDbLine
 10
-1207.0798704177
 20
566.0025378824
 30
0.0
 11
-868.3298704112
 21
566.0025378824
 31
0.0
  0
LINE
  5
C5
330
1F
100
AcDbEntity
  8
0
  6
CENTERX2
 62
     7
100
AcDbLine
 10
-1207.0798704177
 20
548.5025378824
 30
0.0
 11
-868.3298704112
 21
548.5025378824
 31
0.0
  0
LINE
  5
C6
330
1F
100
AcDbEntity
  8
0
  6
CENTERX2
 62
     7
100
AcDbLine
 10
-1207.0798704177
 20
566.0025378824
 30
0.0
 11
-1207.0798704177
 21
531.0025378824
 31
0.0
  0
LINE
  5
C7
330
1F
100
AcDbEntity
  8
0
  6
CENTERX2
 62
     7
100
AcDbLine
 10
-1207.0798704177
 20
566.0025378824
 30
0.0
 11
-868.3298704112
 21
566.0025378824
 31
0.0
  0
LINE
  5
C8
330
1F
100
AcDbEntity
  8
0
  6
CENTERX2
 62
     7
100
AcDbLine
 10
-868.3298704112
 20
566.0025378824
 30
0.0
 11
-868.3298704112
 21
531.0025378824
 31
0.0
  0
LINE
  5
C9
330
1F
100
AcDbEntity
  8
0
  6
CENTERX2
 62
     7
100
AcDbLine
 10
-1207.0798704177
 20
531.0025378824
 30
0.0
 11
-868.3298704112
 21
531.0025378824
 31
0.0
  0
LINE
  5
CA
330
1F
100
AcDbEntity
  8
0
  6
CENTERX2
 62
     7
100
AcDbLine
 10
-1031.9898704112
 20
548.5025378824
 30
0.0
 11
-1043.4198704112
 21
548.5025378824
 31
0.0
  0
LINE
  5
CB
330
1F
100
AcDbEntity
  8
0
  6
CENTERX2
 62
     7
100
AcDbLine
 10
-1031.9898704112
 20
545.3275378824
 30
0.0
 11
-1043.4198704112
 21
545.3275378824
 31
0.0
  0
LINE
  5
CC
330
1F
100
AcDbEntity
  8
0
  6
CENTERX2
 62
     7
100
AcDbLine
 10
-1031.9898704112
 20
551.6775378824
 30
0.0
 11
-1043.4198704112
 21
551.6775378824
 31
0.0
  0
LINE
  5
CD
330
1F
100
AcDbEntity
  8
0
  6
CENTERX2
 62
     7
100
AcDbLine
 10
-1056.9898704112
 20
548.5025378824
 30
0.0
 11
-1068.4198704112
 21
548.5025378824
 31
0.0
  0
LINE
  5
CE
330
1F
100
AcDbEntity
  8
0
  6
CENTERX2
 62
     7
100
AcDbLine
 10
-1056.9898704112
 20
545.3275378824
 30
0.0
 11
-1068.4198704112
 21
545.3275378824
 31
0.0
  0
LINE
  5
CF
330
1F
100
AcDbEntity
  8
0
  6
CENTERX2
 62
     7
100
AcDbLine
 10
-1056.9898704112
 20
551.6775378824
 30
0.0
 11
-1068.4198704112
 21
551.6775378824
 31
0.0
  0
LINE
  5
D0
330
1F
100
AcDbEntity
  8
0
  6
CENTERX2
 62
     7
100
AcDbLine
 10
-1081.9898704112
 20
548.5025378824
 30
0.0
 11
-1093.4198704112
 21
548.5025378824
 31
0.0
  0
LINE
  5
D1
330
1F
100
AcDbEntity
  8
0
  6
CENTERX2
 62
     7
100
AcDbLine
 10
-1081.9898704112
 20
545.3275378824
 30
0.0
 11
-1093.4198704112
 21
545.3275378824
 31
0.0
  0
LINE
  5
D2
330
1F
100
AcDbEntity
  8
0
  6
CENTERX2
 62
     7
100
AcDbLine
 10
-1081.9898704112
 20
551.6775378824
 30
0.0
 11
-1093.4198704112
 21
551.6775378824
 31
0.0
  0
LINE
  5
D3
330
1F
100
AcDbEntity
  8
0
  6
CENTERX2
 62
     7
100
AcDbLine
 10
-1106.9898704112
 20
548.5025378824
 30
0.0
 11
-1118.4198704112
 21
548.5025378824
 31
0.0
  0
LINE
  5
D4
330
1F
100
AcDbEntity
  8
0
  6
CENTERX2
 62
     7
100
AcDbLine
 10
-1106.9898704112
 20
545.3275378824
 30
0.0
 11
-1118.4198704112
 21
545.3275378824
 31
0.0
  0
LINE
  5
D5
330
1F
100
AcDbEntity
  8
0
  6
CENTERX2
 62
     7
100
AcDbLine
 10
-1106.9898704112
 20
551.6775378824
 30
0.0
 11
-1118.4198704112
 21
551.6775378824
 31
0.0
  0
LINE
  5
D6
330
1F
100
AcDbEntity
  8
0
  6
CENTERX2
 62
     7
100
AcDbLine
 10
-1131.9898704112
 20
548.5025378824
 30
0.0
 11
-1143.4198704112
 21
548.5025378824
 31
0.0
  0
LINE
  5
D7
330
1F
100
AcDbEntity
  8
0
  6
CENTERX2
 62
     7
100
AcDbLine
 10
-1131.9898704112
 20
545.3275378824
 30
0.0
 11
-1143.4198704112
 21
545.3275378824
 31
0.0
  0
LINE
  5
D8
330
1F
100
AcDbEntity
  8
0
  6
CENTERX2
 62
     7
100
AcDbLine
 10
-1131.9898704112
 20
551.6775378824
 30
0.0
 11
-1143.4198704112
 21
551.6775378824
 31
0.0
  0
LINE
  5
D9
330
1F
100
AcDbEntity
  8
0
  6
CENTERX2
 62
     7
100
AcDbLine
 10
-1156.9898704112
 20
548.5025378824
 30
0.0
 11
-1168.4198704112
 21
548.5025378824
 31
0.0
  0
LINE
  5
DA
330
1F
100
AcDbEntity
  8
0
  6
CENTERX2
 62
     7
100
AcDbLine
 10
-1156.9898704112
 20
545.3275378824
 30
0.0
 11
-1168.4198704112
 21
545.3275378824
 31
0.0
  0
LINE
  5
DB
330
1F
100
AcDbEntity
  8
0
  6
CENTERX2
 62
     7
100
AcDbLine
 10
-1156.9898704112
 20
551.6775378824
 30
0.0
 11
-1168.4198704112
 21
551.6775378824
 31
0.0
  0
LINE
  5
DC
330
1F
100
AcDbEntity
  8
0
  6
CENTERX2
 62
     7
100
AcDbLine
 10
-1006.9898704112
 20
548.5025378824
 30
0.0
 11
-1018.4198704112
 21
548.5025378824
 31
0.0
  0
LINE
  5
DD
330
1F
100
AcDbEntity
  8
0
  6
CENTERX2
 62
     7
100
AcDbLine
 10
-1006.9898704112
 20
545.3275378824
 30
0.0
 11
-1018.4198704112
 21
545.3275378824
 31
0.0
  0
LINE
  5
DE
330
1F
100
AcDbEntity
  8
0
  6
CENTERX2
 62
     7
100
AcDbLine
 10
-1006.9898704112
 20
551.6775378824
 30
0.0
 11
-1018.4198704112
 21
551.6775378824
 31
0.0
  0
LINE
  5
DF
330
1F
100
AcDbEntity
  8
0
  6
CENTERX2
 62
     7
100
AcDbLine
 10
-981.9898704112
 20
548.5025378824
 30
0.0
 11
-993.4198704112
 21
548.5025378824
 31
0.0
  0
LINE
  5
E0
330
1F
100
AcDbEntity
  8
0
  6
CENTERX2
 62
     7
100
AcDbLine
 10
-981.9898704112
 20
545.3275378824
 30
0.0
 11
-993.4198704112
 21
545.3275378824
 31
0.0
  0
LINE
  5
E1
330
1F
100
AcDbEntity
  8
0
  6
CENTERX2
 62
     7
100
AcDbLine
 10
-981.9898704112
 20
551.6775378824
 30
0.0
 11
-993.4198704112
 21
551.6775378824
 31
0.0
  0
LINE
  5
E2
330
1F
100
AcDbEntity
  8
0
  6
CENTERX2
 62
     7
100
AcDbLine
 10
-956.9898704112
 20
548.5025378824
 30
0.0
 11
-968.4198704112
 21
548.5025378824
 31
0.0
  0
LINE
  5
E3
330
1F
100
AcDbEntity
  8
0
  6
CENTERX2
 62
     7
100
AcDbLine
 10
-956.9898704112
 20
545.3275378824
 30
0.0
 11
-968.4198704112
 21
545.3275378824
 31
0.0
  0
LINE
  5
E4
330
1F
100
AcDbEntity
  8
0
  6
CENTERX2
 62
     7
100
AcDbLine
 10
-956.9898704112
 20
551.6775378824
 30
0.0
 11
-968.4198704112
 21
551.6775378824
 31
0.0
  0
LINE
  5
E5
330
1F
100
AcDbEntity
  8
0
  6
CENTERX2
 62
     7
100
AcDbLine
 10
-931.9898704112
 20
548.5025378824
 30
0.0
 11
-943.4198704112
 21
548.5025378824
 31
0.0
  0
LINE
  5
E6
330
1F
100
AcDbEntity
  8
0
  6
CENTERX2
 62
     7
100
AcDbLine
 10
-931.9898704112
 20
545.3275378824
 30
0.0
 11
-943.4198704112
 21
545.3275378824
 31
0.0
  0
LINE
  5
E7
330
1F
100
AcDbEntity
  8
0
  6
CENTERX2
 62
     7
100
AcDbLine
 10
-931.9898704112
 20
551.6775378824
 30
0.0
 11
-943.4198704112
 21
551.6775378824
 31
0.0
  0
LINE
  5
E8
330
1F
100
AcDbEntity
  8
0
  6
CENTERX2
 62
     7
100
AcDbLine
 10
-906.9898704112
 20
548.5025378824
 30
0.0
 11
-918.4198704112
 21
548.5025378824
 31
0.0
  0
LINE
  5
E9
330
1F
100
AcDbEntity
  8
0
  6
CENTERX2
 62
     7
100
AcDbLine
 10
-906.9898704112
 20
545.3275378824
 30
0.0
 11
-918.4198704112
 21
545.3275378824
 31
0.0
  0
LINE
  5
EA
330
1F
100
AcDbEntity
  8
0
  6
CENTERX2
 62
     7
100
AcDbLine
 10
-906.9898704112
 20
551.6775378824
 30
0.0
 11
-918.4198704112
 21
551.6775378824
 31
0.0
  0
LINE
  5
EB
330
1F
100
AcDbEntity
  8
0
  6
CENTERX2
 62
     7
100
AcDbLine
 10
-1037.7048704145
 20
167.502537876
 30
0.0
 11
-1037.7048704145
 21
606.0025378824
 31
0.0
  0
LINE
  5
EC
330
1F
100
AcDbEntity
  8
0
  6
CENTERX2
 62
     7
100
AcDbLine
 10
-1207.0798704177
 20
508.5025378824
 30
0.0
 11
-868.3298704112
 21
508.5025378824
 31
0.0
  0
LINE
  5
ED
330
1F
100
AcDbEntity
  8
0
  6
CENTERX2
 62
     7
100
AcDbLine
 10
-1202.0798704177
 20
222.502537876
 30
0.0
 11
-1178.9698704177
 21
222.502537876
 31
0.0
  0
LINE
  5
EE
330
1F
100
AcDbEntity
  8
0
  6
CENTERX2
 62
     7
100
AcDbLine
 10
-1178.9698704177
 20
222.502537876
 30
0.0
 11
-1178.9698704177
 21
324.102537876
 31
0.0
  0
LINE
  5
EF
330
1F
100
AcDbEntity
  8
0
  6
CENTERX2
 62
     7
100
AcDbLine
 10
-1178.9698704177
 20
222.502537876
 30
0.0
 11
-1125.6698704177
 21
222.502537876
 31
0.0
  0
LINE
  5
F0
330
1F
100
AcDbEntity
  8
0
  6
CENTERX2
 62
     7
100
AcDbLine
 10
-1125.6698704177
 20
222.502537876
 30
0.0
 11
-1102.5598704177
 21
222.502537876
 31
0.0
  0
LINE
  5
F1
330
1F
100
AcDbEntity
  8
0
  6
CENTERX2
 62
     7
100
AcDbLine
 10
-1102.5598704177
 20
222.502537876
 30
0.0
 11
-1049.2598704177
 21
222.502537876
 31
0.0
  0
LINE
  5
F2
330
1F
100
AcDbEntity
  8
0
  6
CENTERX2
 62
     7
100
AcDbLine
 10
-1049.2598704177
 20
222.502537876
 30
0.0
 11
-1026.1498704177
 21
222.502537876
 31
0.0
  0
LINE
  5
F3
330
1F
100
AcDbEntity
  8
0
  6
CENTERX2
 62
     7
100
AcDbLine
 10
-1026.1498704177
 20
222.502537876
 30
0.0
 11
-972.8498704177
 21
222.502537876
 31
0.0
  0
LINE
  5
F4
330
1F
100
AcDbEntity
  8
0
  6
CENTERX2
 62
     7
100
AcDbLine
 10
-972.8498704177
 20
222.502537876
 30
0.0
 11
-949.7398704177
 21
222.502537876
 31
0.0
  0
LINE
  5
F5
330
1F
100
AcDbEntity
  8
0
  6
CENTERX2
 62
     7
100
AcDbLine
 10
-949.7398704177
 20
222.502537876
 30
0.0
 11
-896.4398704177
 21
222.502537876
 31
0.0
  0
LINE
  5
F6
330
1F
100
AcDbEntity
  8
0
  6
CENTERX2
 62
     7
100
AcDbLine
 10
-896.4398704177
 20
222.502537876
 30
0.0
 11
-873.3298704177
 21
222.502537876
 31
0.0
  0
LINE
  5
F7
330
1F
100
AcDbEntity
  8
0
  6
CENTERX2
 62
     7
100
AcDbLine
 10
-1202.0798704177
 20
172.502537876
 30
0.0
 11
-1202.0798704177
 21
222.502537876
 31
0.0
  0
LINE
  5
F8
330
1F
100
AcDbEntity
  8
0
  6
CENTERX2
 62
     7
100
AcDbLine
 10
-1178.9698704177
 20
324.102537876
 30
0.0
 11
-1125.6698704177
 21
324.102537876
 31
0.0
  0
LINE
  5
F9
330
1F
100
AcDbEntity
  8
0
  6
CENTERX2
 62
     7
100
AcDbLine
 10
-1125.6698704177
 20
324.102537876
 30
0.0
 11
-1125.6698704177
 21
222.502537876
 31
0.0
  0
LINE
  5
FA
330
1F
100
AcDbEntity
  8
0
  6
CENTERX2
 62
     7
100
AcDbLine
 10
-1102.5598704178
 20
222.502537876
 30
0.0
 11
-1102.5598704178
 21
324.102537876
 31
0.0
  0
LINE
  5
FB
330
1F
100
AcDbEntity
  8
0
  6
CENTERX2
 62
     7
100
AcDbLine
 10
-1102.5598704178
 20
324.102537876
 30
0.0
 11
-1049.2598704178
 21
324.102537876
 31
0.0
  0
LINE
  5
FC
330
1F
100
AcDbEntity
  8
0
  6
CENTERX2
 62
     7
100
AcDbLine
 10
-1049.2598704178
 20
324.102537876
 30
0.0
 11
-1049.2598704178
 21
222.502537876
 31
0.0
  0
LINE
  5
FD
330
1F
100
AcDbEntity
  8
0
  6
CENTERX2
 62
     7
100
AcDbLine
 10
-1026.1498704179
 20
222.502537876
 30
0.0
 11
-1026.1498704179
 21
324.102537876
 31
0.0
  0
LINE
  5
FE
330
1F
100
AcDbEntity
  8
0
  6
CENTERX2
 62
     7
100
AcDbLine
 10
-1026.1498704179
 20
324.102537876
 30
0.0
 11
-972.8498704179
 21
324.102537876
 31
0.0
  0
LINE
  5
FF
330
1F
100
AcDbEntity
  8
0
  6
CENTERX2
 62
     7
100
AcDbLine
 10
-972.8498704179
 20
324.102537876
 30
0.0
 11
-972.8498704179
 21
222.502537876
 31
0.0
  0
LINE
  5
100
330
1F
100
AcDbEntity
  8
0
  6
CENTERX2
 62
     7
100
AcDbLine
 10
-949.739870418
 20
222.502537876
 30
0.0
 11
-949.739870418
 21
324.102537876
 31
0.0
  0
LINE
  5
101
330
1F
100
AcDbEntity
  8
0
  6
CENTERX2
 62
     7
100
AcDbLine
 10
-949.739870418
 20
324.102537876
 30
0.0
 11
-896.439870418
 21
324.102537876
 31
0.0
  0
LINE
  5
102
330
1F
100
AcDbEntity
  8
0
  6
CENTERX2
 62
     7
100
AcDbLine
 10
-896.439870418
 20
324.102537876
 30
0.0
 11
-896.439870418
 21
222.502537876
 31
0.0
  0
LINE
  5
103
330
1F
100
AcDbEntity
  8
0
  6
CENTERX2
 62
     7
100
AcDbLine
 10
-1013.7362768783
 20
448.5025378824
 30
0.0
 11
-999.8798704177
 21
456.5025378824
 31
0.0
  0
LINE
  5
104
330
1F
100
AcDbEntity
  8
0
  6
CENTERX2
 62
     7
100
AcDbLine
 10
-999.8798704177
 20
456.5025378824
 30
0.0
 11
-1013.7362768783
 21
464.5025378824
 31
0.0
  0
LINE
  5
105
330
1F
100
AcDbEntity
  8
0
  6
CENTERX2
 62
     7
100
AcDbLine
 10
-1013.7362768783
 20
464.5025378824
 30
0.0
 11
-1013.7362768783
 21
448.5025378824
 31
0.0
  0
LINE
  5
106
330
1F
100
AcDbEntity
  8
0
  6
CENTERX2
 62
     7
100
AcDbLine
 10
-999.8798704177
 20
456.5025378824
 30
0.0
 11
-957.3798704177
 21
456.5025378824
 31
0.0
  0
LINE
  5
107
330
1F
100
AcDbEntity
  8
0
  6
CENTERX2
 62
     7
100
AcDbLine
 10
-957.3798704177
 20
456.5025378824
 30
0.0
 11
-957.3798704177
 21
424.5025378824
 31
0.0
  0
LINE
  5
108
330
1F
100
AcDbEntity
  8
0
  6
CENTERX2
 62
     7
100
AcDbLine
 10
-957.3798704177
 20
456.5025378824
 30
0.0
 11
-957.3798704177
 21
488.5025378824
 31
0.0
  0
LINE
  5
109
330
1F
100
AcDbEntity
  8
0
  6
CENTERX2
 62
     7
100
AcDbLine
 10
-1028.5798704177
 20
488.5025378824
 30
0.0
 11
-1028.5798704177
 21
424.5025378824
 31
0.0
  0
LINE
  5
10A
330
1F
100
AcDbEntity
  8
0
  6
CENTERX2
 62
     7
100
AcDbLine
 10
-1028.5798704177
 20
488.5025378824
 30
0.0
 11
-886.1798704177
 21
488.5025378824
 31
0.0
  0
LINE
  5
10B
330
1F
100
AcDbEntity
  8
0
  6
CENTERX2
 62
     7
100
AcDbLine
 10
-886.1798704177
 20
488.5025378824
 30
0.0
 11
-886.1798704177
 21
424.5025378824
 31
0.0
  0
LINE
  5
10C
330
1F
100
AcDbEntity
  8
0
  6
CENTERX2
 62
     7
100
AcDbLine
 10
-1028.5798704177
 20
424.5025378824
 30
0.0
 11
-886.1798704177
 21
424.5025378824
 31
0.0
  0
LINE
  5
10D
330
1F
100
AcDbEntity
  8
0
  6
CENTERX2
 62
     7
100
AcDbLine
 10
-1147.0798704177
 20
488.5025378824
 30
0.0
 11
-1147.0798704177
 21
401.4025378824
 31
0.0
  0
LINE
  5
10E
330
1F
100
AcDbEntity
  8
0
  6
CENTERX2
 62
     7
100
AcDbLine
 10
-1147.0798704177
 20
488.5025378824
 30
0.0
 11
-1088.5798704177
 21
488.5025378824
 31
0.0
  0
LINE
  5
10F
330
1F
100
AcDbEntity
  8
0
  6
CENTERX2
 62
     7
100
AcDbLine
 10
-1088.5798704177
 20
488.5025378824
 30
0.0
 11
-1088.5798704177
 21
401.4025378824
 31
0.0
  0
LINE
  5
110
330
1F
100
AcDbEntity
  8
0
  6
CENTERX2
 62
     7
100
AcDbLine
 10
-1147.0798704177
 20
401.4025378824
 30
0.0
 11
-1088.5798704177
 21
401.4025378824
 31
0.0
  0
LWPOLYLINE
  5
111
330
1F
100
AcDbEntity
  8
0
  6
Continuous
 62
     7
100
AcDbPolyline
 90
       59
 70
   128
 43
0.0
 10
-976.5516097088
 20
554.4509887695
 10
-976.5516097088
 20
555.1514721354
 10
-976.5516097088
 20
555.1514721354
 10
-976.550908587
 20
555.2916964944
 10
-976.5488052216
 20
555.4207029047
 10
-976.5445984908
 20
555.5370891226
 10
-976.5396906382
 20
555.6422573918
 10
-976.5326794203
 20
555.7355065906
 10
-976.5249670806
 20
555.8168367188
 10
-976.5151513754
 20
555.8869488982
 10
-976.5039334267
 20
555.9444408854
 10
-976.5039334267
 20
555.9444408854
 10
-976.4836008947
 20
556.0208631611
 10
-976.4576593882
 20
556.0937798277
 10
-976.4268100293
 20
556.1631908854
 10
-976.3910528177
 20
556.2283952123
 10
-976.3496866318
 20
556.2900939303
 10
-976.3034125934
 20
556.3482870393
 10
-976.2522307024
 20
556.4029745393
 10
-976.195439837
 20
556.4534553085
 10
-976.1351433626
 20
556.499729347
 10
-976.0706401575
 20
556.5396932893
 10
-976.0033324652
 20
556.5733471354
 10
-975.9325191639
 20
556.6006908854
 10
-975.8582002536
 20
556.6224256611
 10
-975.7810768562
 20
556.6378503406
 10
-975.699746728
 20
556.6469649239
 10
-975.6156121126
 20
556.6497694111
 10
-975.6156121126
 20
556.6497694111
 10
-975.4760888754
 20
556.6413559495
 10
-975.3456802216
 20
556.6154144431
 10
-975.2236850293
 20
556.5719448918
 10
-975.1101032985
 20
556.5116484175
 10
-975.0077395165
 20
556.4352261418
 10
-974.9186970485
 20
556.3440803085
 10
-974.8429758947
 20
556.2375097957
 10
-974.7805760549
 20
556.116916847
 10
-974.7546345485
 20
556.0496091547
 10
-974.7314975293
 20
555.976692488
 10
-974.7125672408
 20
555.8974657252
 10
-974.6964414395
 20
555.8119288662
 10
-974.6838212472
 20
555.7200819111
 10
-974.6747066639
 20
555.6226259816
 10
-974.6690976895
 20
555.5188599559
 10
-974.6669943241
 20
555.4087838341
 10
-974.6669943241
 20
555.4087838341
 10
-973.0516097088
 20
556.6946412059
 10
-973.0516097088
 20
556.6946412059
 10
-973.0516097088
 20
556.3062197316
 10
-973.0516097088
 20
556.3062197316
 10
-974.6669943241
 20
555.0203623598
 10
-974.6669943241
 20
555.0203623598
 10
-974.6669943241
 20
554.7651540264
 10
-974.6669943241
 20
554.7651540264
 10
-973.0516097088
 20
554.7651540264
 10
-973.0516097088
 20
554.7651540264
 10
-973.0516097088
 20
554.4510514623
 10
-973.0516097088
 20
554.4510514623
 10
-976.5516097088
 20
554.4510514623
  0
LWPOLYLINE
  5
112
330
1F
100
AcDbEntity
  8
0
  6
Continuous
 62
     7
100
AcDbPolyline
 90
       40
 70
   128
 43
0.0
 10
-976.1926353498
 20
554.7647476196
 10
-975.0259686831
 20
554.7651540264
 10
-975.0259686831
 20
554.7651540264
 10
-975.0210608306
 20
555.405979347
 10
-975.0210608306
 20
555.405979347
 10
-975.0217619524
 20
555.4957229367
 10
-975.0252675613
 20
555.5798575521
 10
-975.0301754139
 20
555.6576820713
 10
-975.0371866318
 20
555.7298976162
 10
-975.0463012152
 20
555.7958030649
 10
-975.0575191639
 20
555.8553984175
 10
-975.070840478
 20
555.9093847957
 10
-975.0862651575
 20
555.9570610777
 10
-975.1241257344
 20
556.0411956931
 10
-975.1711008947
 20
556.1162157252
 10
-975.2285928818
 20
556.1807189303
 10
-975.2951994524
 20
556.2354064303
 10
-975.3695183626
 20
556.2795771034
 10
-975.4473428818
 20
556.3104264623
 10
-975.5300752536
 20
556.3293567508
 10
-975.6163132344
 20
556.335666847
 10
-975.6163132344
 20
556.335666847
 10
-975.7004478498
 20
556.3293567508
 10
-975.7810768562
 20
556.3104264623
 10
-975.8574991318
 20
556.2781748598
 10
-975.9297146767
 20
556.2340041867
 10
-975.9956201254
 20
556.1793166867
 10
-976.0510087472
 20
556.116916847
 10
-976.0965816639
 20
556.0468046675
 10
-976.1316377536
 20
555.9682790264
 10
-976.1456601895
 20
555.9234072316
 10
-976.1582803818
 20
555.8722253406
 10
-976.1687972088
 20
555.8140322316
 10
-976.1772106703
 20
555.7495290264
 10
-976.1842218882
 20
555.6773134816
 10
-976.1891297408
 20
555.5987878406
 10
-976.191934228
 20
555.5132509816
 10
-976.1926353498
 20
555.4214040264
 10
-976.1926353498
 20
555.4214040264
 10
-976.1926353498
 20
554.7651540264
  0
LWPOLYLINE
  5
113
330
1F
100
AcDbEntity
  8
0
  6
Continuous
 62
     7
100
AcDbPolyline
 90
       62
 70
   128
 43
0.0
 10
-975.6093020165
 20
559.9250793457
 10
-973.0516097088
 20
559.9254104367
 10
-973.0516097088
 20
559.9254104367
 10
-973.0516097088
 20
559.6113078726
 10
-973.0516097088
 20
559.6113078726
 10
-973.4940175613
 20
559.6113078726
 10
-973.4940175613
 20
559.6113078726
 10
-973.3762290998
 20
559.5026339944
 10
-973.2752675613
 20
559.3883511418
 10
-973.1911329459
 20
559.2663559495
 10
-973.1238252536
 20
559.1387517829
 10
-973.0726433626
 20
559.00483752
 10
-973.0361850293
 20
558.8653142829
 10
-973.0137491318
 20
558.7187798277
 10
-973.0067379139
 20
558.5666363982
 10
-973.0067379139
 20
558.5666363982
 10
-973.01304801
 20
558.4313198918
 10
-973.0312771767
 20
558.300911238
 10
-973.0614254139
 20
558.1754104367
 10
-973.1034927216
 20
558.054817488
 10
-973.1581802216
 20
557.9398335136
 10
-973.2247867921
 20
557.82905627
 10
-973.3033124331
 20
557.7238880008
 10
-973.3944582665
 20
557.6236275841
 10
-973.4940175613
 20
557.531780629
 10
-973.5984847088
 20
557.4525538662
 10
-973.7085608306
 20
557.3859472957
 10
-973.8242459267
 20
557.3305586739
 10
-973.9448388754
 20
557.2877902444
 10
-974.0703396767
 20
557.2576420072
 10
-974.2014494524
 20
557.2394128406
 10
-974.3374670806
 20
557.2331027444
 10
-974.3374670806
 20
557.2331027444
 10
-974.4706802216
 20
557.2394128406
 10
-974.5996866318
 20
557.2576420072
 10
-974.7230840677
 20
557.2884913662
 10
-974.8422747729
 20
557.3319609175
 10
-974.9558565036
 20
557.3873495393
 10
-975.0645303818
 20
557.4546572316
 10
-975.1689975293
 20
557.5345851162
 10
-975.2678557024
 20
557.6271331931
 10
-975.3583004139
 20
557.7280947316
 10
-975.4368260549
 20
557.8346652444
 10
-975.5034326254
 20
557.945442488
 10
-975.5574190036
 20
558.0618287059
 10
-975.6001874331
 20
558.1831227764
 10
-975.6303356703
 20
558.3093246995
 10
-975.6478637152
 20
558.4404344752
 10
-975.6541738113
 20
558.5764521034
 10
-975.6541738113
 20
558.5764521034
 10
-975.6464614716
 20
558.7328022636
 10
-975.6233244524
 20
558.8814400841
 10
-975.5840616318
 20
559.0223655649
 10
-975.5300752536
 20
559.1555787059
 10
-975.4592619524
 20
559.2810795072
 10
-975.3695183626
 20
559.3995690906
 10
-975.262246728
 20
559.5089440906
 10
-975.1360448049
 20
559.6113078726
 10
-975.1360448049
 20
559.6113078726
 10
-975.6093020165
 20
559.6113078726
 10
-975.6093020165
 20
559.6113078726
 10
-975.6093020165
 20
559.9254104367
  0
LWPOLYLINE
  5
114
330
1F
100
AcDbEntity
  8
0
  6
Continuous
 62
     7
100
AcDbPolyline
 90
       56
 70
   128
 43
0.0
 10
-975.3400712472
 20
558.5803985596
 10
-975.3316577857
 20
558.4432389623
 10
-975.3071185229
 20
558.3114280649
 10
-975.265752337
 20
558.1852261418
 10
-975.2082603498
 20
558.0639320713
 10
-975.1360448049
 20
557.9517525841
 10
-975.0498068241
 20
557.8514921675
 10
-974.9509486511
 20
557.7631508213
 10
-974.8380680421
 20
557.6867285457
 10
-974.7174750934
 20
557.6257309495
 10
-974.5926754139
 20
557.5822613982
 10
-974.4650712472
 20
557.55561877
 10
-974.3339614716
 20
557.5472053085
 10
-974.3339614716
 20
557.5472053085
 10
-974.2035528177
 20
557.5563198918
 10
-974.0759486511
 20
557.5822613982
 10
-973.9511489716
 20
557.6264320713
 10
-973.8291537793
 20
557.6881307893
 10
-973.7155720485
 20
557.7652541867
 10
-973.6153116318
 20
557.8535955329
 10
-973.5283725293
 20
557.9545570713
 10
-973.4547547408
 20
558.0674376803
 10
-973.39586051
 20
558.1887317508
 10
-973.3544943241
 20
558.3142325521
 10
-973.3292539395
 20
558.4439400841
 10
-973.320840478
 20
558.577854347
 10
-973.320840478
 20
558.577854347
 10
-973.3292539395
 20
558.7138719752
 10
-973.3537932024
 20
558.8463839944
 10
-973.3951593882
 20
558.9746892829
 10
-973.4533524972
 20
559.0994889623
 10
-973.5255680421
 20
559.2151740585
 10
-973.6097026575
 20
559.3175378406
 10
-973.7057563434
 20
559.4044769431
 10
-973.813027978
 20
559.4780947316
 10
-973.9301153177
 20
559.5362878406
 10
-974.0549149972
 20
559.5783551482
 10
-974.1860247729
 20
559.6028944111
 10
-974.3248468882
 20
559.6113078726
 10
-974.3248468882
 20
559.6113078726
 10
-974.4307162793
 20
559.60640002
 10
-974.5323789395
 20
559.5923775841
 10
-974.629834869
 20
559.5692405649
 10
-974.7223829459
 20
559.5369889623
 10
-974.8107242921
 20
559.4949216547
 10
-974.8948589075
 20
559.4437397636
 10
-974.9740856703
 20
559.3834432893
 10
-975.0491057024
 20
559.3133311098
 10
-975.1171145165
 20
559.2369088341
 10
-975.176709869
 20
559.1562798277
 10
-975.2264895165
 20
559.0707429688
 10
-975.2671545806
 20
558.9817005008
 10
-975.2994061831
 20
558.8877501803
 10
-975.3218420806
 20
558.789593129
 10
-975.3358645165
 20
558.687229347
 10
-975.3400712472
 20
558.5806588341
  0
LWPOLYLINE
  5
115
330
1F
100
AcDbEntity
  8
0
  6
Continuous
 62
     7
100
AcDbPolyline
 90
       36
 70
   128
 43
0.0
 10
-976.6862250934
 20
560.7538223267
 10
-976.6813172408
 20
560.8123295072
 10
-976.6665936831
 20
560.8663158854
 10
-976.6413532985
 20
560.9160955329
 10
-976.6069983306
 20
560.9609673277
 10
-976.5656321447
 20
560.9988279047
 10
-976.5193581062
 20
561.0254705329
 10
-976.4695784588
 20
561.0415963341
 10
-976.4155920806
 20
561.0472053085
 10
-976.4155920806
 20
561.0472053085
 10
-976.3630079459
 20
561.0415963341
 10
-976.3139294203
 20
561.0254705329
 10
-976.2683565036
 20
560.9988279047
 10
-976.2269903177
 20
560.9609673277
 10
-976.1926353498
 20
560.9160955329
 10
-976.1673949652
 20
560.8663158854
 10
-976.1526714075
 20
560.8123295072
 10
-976.1477635549
 20
560.7541363982
 10
-976.1477635549
 20
560.7541363982
 10
-976.1526714075
 20
560.6966444111
 10
-976.1673949652
 20
560.6440602764
 10
-976.1926353498
 20
560.594280629
 10
-976.2269903177
 20
560.5494088341
 10
-976.2683565036
 20
560.512249379
 10
-976.3139294203
 20
560.4856067508
 10
-976.3630079459
 20
560.4694809495
 10
-976.4155920806
 20
560.4638719752
 10
-976.4155920806
 20
560.4638719752
 10
-976.4695784588
 20
560.4694809495
 10
-976.5193581062
 20
560.4856067508
 10
-976.5656321447
 20
560.512249379
 10
-976.6069983306
 20
560.5494088341
 10
-976.6413532985
 20
560.594280629
 10
-976.6665936831
 20
560.6440602764
 10
-976.6813172408
 20
560.6966444111
 10
-976.6862250934
 20
560.7541363982
  0
LWPOLYLINE
  5
116
330
1F
100
AcDbEntity
  8
0
  6
Continuous
 62
     7
100
AcDbPolyline
 90
        8
 70
   128
 43
0.0
 10
-975.6093020165
 20
560.5983734131
 10
-975.6093020165
 20
560.9125899239
 10
-975.6093020165
 20
560.9125899239
 10
-973.0516097088
 20
560.9125899239
 10
-973.0516097088
 20
560.9125899239
 10
-973.0516097088
 20
560.5984873598
 10
-973.0516097088
 20
560.5984873598
 10
-975.6093020165
 20
560.5984873598
  0
LWPOLYLINE
  5
117
330
1F
100
AcDbEntity
  8
0
  6
Continuous
 62
     7
100
AcDbPolyline
 90
        8
 70
   128
 43
0.0
 10
-976.6413532985
 20
561.6302490234
 10
-976.6413532985
 20
561.9446412059
 10
-976.6413532985
 20
561.9446412059
 10
-973.0516097088
 20
561.9446412059
 10
-973.0516097088
 20
561.9446412059
 10
-973.0516097088
 20
561.6305386418
 10
-973.0516097088
 20
561.6305386418
 10
-976.6413532985
 20
561.6305386418
  0
POINT
  5
118
330
1F
100
AcDbEntity
  8
0
  6
Continuous
 62
     7
100
AcDbPoint
 10
-1037.7048704112
 20
548.5025378824
 30
0.0
  0
POINT
  5
119
330
1F
100
AcDbEntity
  8
0
  6
Continuous
 62
     7
100
AcDbPoint
 10
-1062.7048704112
 20
548.5025378824
 30
0.0
  0
POINT
  5
11A
330
1F
100
AcDbEntity
  8
0
  6
Continuous
 62
     7
100
AcDbPoint
 10
-1087.7048704112
 20
548.5025378824
 30
0.0
  0
POINT
  5
11B
330
1F
100
AcDbEntity
  8
0
  6
Continuous
 62
     7
100
AcDbPoint
 10
-1112.7048704112
 20
548.5025378824
 30
0.0
  0
POINT
  5
11C
330
1F
100
AcDbEntity
  8
0
  6
Continuous
 62
     7
100
AcDbPoint
 10
-1137.7048704112
 20
548.5025378824
 30
0.0
  0
POINT
  5
11D
330
1F
100
AcDbEntity
  8
0
  6
Continuous
 62
     7
100
AcDbPoint
 10
-1162.7048704112
 20
548.5025378824
 30
0.0
  0
POINT
  5
11E
330
1F
100
AcDbEntity
  8
0
  6
Continuous
 62
     7
100
AcDbPoint
 10
-1012.7048704112
 20
548.5025378824
 30
0.0
  0
POINT
  5
11F
330
1F
100
AcDbEntity
  8
0
  6
Continuous
 62
     7
100
AcDbPoint
 10
-987.7048704112
 20
548.5025378824
 30
0.0
  0
POINT
  5
120
330
1F
100
AcDbEntity
  8
0
  6
Continuous
 62
     7
100
AcDbPoint
 10
-962.7048704112
 20
548.5025378824
 30
0.0
  0
POINT
  5
121
330
1F
100
AcDbEntity
  8
0
  6
Continuous
 62
     7
100
AcDbPoint
 10
-937.7048704112
 20
548.5025378824
 30
0.0
  0
POINT
  5
122
330
1F
100
AcDbEntity
  8
0
  6
Continuous
 62
     7
100
AcDbPoint
 10
-912.7048704112
 20
548.5025378824
 30
0.0
  0
CIRCLE
  5
123
330
1F
100
AcDbEntity
  8
0
  6
Continuous
 62
     7
370
    25
100
AcDbCircle
 10
-1176.4698704177
 20
227.902537876
 30
0.0
 40
1.600000000001273
  0
CIRCLE
  5
124
330
1F
100
AcDbEntity
  8
0
  6
Continuous
 62
     7
370
    25
100
AcDbCircle
 10
-1141.0798704177
 20
427.0025378824
 30
0.0
 40
1.399999999999864
  0
CIRCLE
  5
125
330
1F
100
AcDbEntity
  8
0
  6
Continuous
 62
     7
370
    25
100
AcDbCircle
 10
-975.4498704179
 20
233.902537876
 30
0.0
 40
1.600000000000136
  0
CIRCLE
  5
126
330
1F
100
AcDbEntity
  8
0
  6
Continuous
 62
     7
370
    25
100
AcDbCircle
 10
-975.4498704179
 20
308.802537876
 30
0.0
 40
1.600000000000136
  0
CIRCLE
  5
127
330
1F
100
AcDbEntity
  8
0
  6
Continuous
 62
     7
370
    25
100
AcDbCircle
 10
-1023.6498704179
 20
310.102537876
 30
0.0
 40
1.600000000000136
  0
CIRCLE
  5
128
330
1F
100
AcDbEntity
  8
0
  6
Continuous
 62
     7
370
    25
100
AcDbCircle
 10
-1023.6498704179
 20
227.902537876
 30
0.0
 40
1.600000000000136
  0
CIRCLE
  5
129
330
1F
100
AcDbEntity
  8
0
  6
Continuous
 62
     7
370
    25
100
AcDbCircle
 10
-1094.9598704178
 20
258.002537876
 30
0.0
 40
1.600000000000136
  0
CIRCLE
  5
12A
330
1F
100
AcDbEntity
  8
0
  6
Continuous
 62
     7
370
    25
100
AcDbCircle
 10
-1067.0598704178
 20
258.002537876
 30
0.0
 40
1.599999999999909
  0
CIRCLE
  5
12B
330
1F
100
AcDbEntity
  8
0
  6
Continuous
 62
     7
370
    25
100
AcDbCircle
 10
-1051.8598704178
 20
233.902537876
 30
0.0
 40
1.600000000000136
  0
CIRCLE
  5
12C
330
1F
100
AcDbEntity
  8
0
  6
Continuous
 62
     7
370
    25
100
AcDbCircle
 10
-1051.8598704178
 20
308.802537876
 30
0.0
 40
1.600000000000136
  0
CIRCLE
  5
12D
330
1F
100
AcDbEntity
  8
0
  6
Continuous
 62
     7
370
    25
100
AcDbCircle
 10
-1176.4698704177
 20
310.102537876
 30
0.0
 40
1.600000000000136
  0
CIRCLE
  5
12E
330
1F
100
AcDbEntity
  8
0
  6
Continuous
 62
     7
370
    25
100
AcDbCircle
 10
-1128.2698704177
 20
308.802537876
 30
0.0
 40
1.600000000000819
  0
CIRCLE
  5
12F
330
1F
100
AcDbEntity
  8
0
  6
Continuous
 62
     7
370
    25
100
AcDbCircle
 10
-1128.2698704177
 20
233.902537876
 30
0.0
 40
1.600000000000819
  0
CIRCLE
  5
130
330
1F
100
AcDbEntity
  8
0
  6
Continuous
 62
     7
370
    25
100
AcDbCircle
 10
-1143.4698704177
 20
258.002537876
 30
0.0
 40
1.600000000000136
  0
CIRCLE
  5
131
330
1F
100
AcDbEntity
  8
0
  6
Continuous
 62
     7
370
    25
100
AcDbCircle
 10
-1100.0598704178
 20
310.102537876
 30
0.0
 40
1.600000000000136
  0
CIRCLE
  5
132
330
1F
100
AcDbEntity
  8
0
  6
Continuous
 62
     7
370
    25
100
AcDbCircle
 10
-1100.0598704178
 20
227.902537876
 30
0.0
 40
1.600000000000136
  0
CIRCLE
  5
133
330
1F
100
AcDbEntity
  8
0
  6
Continuous
 62
     7
370
    25
100
AcDbCircle
 10
-1171.3698704177
 20
258.002537876
 30
0.0
 40
1.599999999999909
  0
CIRCLE
  5
134
330
1F
100
AcDbEntity
  8
0
  6
Continuous
 62
     7
370
    25
100
AcDbCircle
 10
-1013.7362768783
 20
464.5025378824
 30
0.0
 40
1.600000000000136
  0
CIRCLE
  5
135
330
1F
100
AcDbEntity
  8
0
  6
Continuous
 62
     7
370
    25
100
AcDbCircle
 10
-990.6498704179
 20
258.002537876
 30
0.0
 40
1.600000000000023
  0
CIRCLE
  5
136
330
1F
100
AcDbEntity
  8
0
  6
Continuous
 62
     7
370
    25
100
AcDbCircle
 10
-1018.5498704179
 20
258.002537876
 30
0.0
 40
1.600000000000136
  0
CIRCLE
  5
137
330
1F
100
AcDbEntity
  8
0
  6
Continuous
 62
     7
370
    25
100
AcDbCircle
 10
-947.239870418
 20
227.902537876
 30
0.0
 40
1.600000000000023
  0
CIRCLE
  5
138
330
1F
100
AcDbEntity
  8
0
  6
Continuous
 62
     7
370
    25
100
AcDbCircle
 10
-947.239870418
 20
310.102537876
 30
0.0
 40
1.600000000000136
  0
CIRCLE
  5
139
330
1F
100
AcDbEntity
  8
0
  6
Continuous
 62
     7
370
    25
100
AcDbCircle
 10
-899.039870418
 20
308.802537876
 30
0.0
 40
1.600000000000023
  0
CIRCLE
  5
13A
330
1F
100
AcDbEntity
  8
0
  6
Continuous
 62
     7
370
    25
100
AcDbCircle
 10
-899.039870418
 20
233.902537876
 30
0.0
 40
1.600000000000023
  0
CIRCLE
  5
13B
330
1F
100
AcDbEntity
  8
0
  6
Continuous
 62
     7
370
    25
100
AcDbCircle
 10
-914.239870418
 20
258.002537876
 30
0.0
 40
1.600000000000023
  0
CIRCLE
  5
13C
330
1F
100
AcDbEntity
  8
0
  6
Continuous
 62
     7
370
    25
100
AcDbCircle
 10
-942.139870418
 20
258.002537876
 30
0.0
 40
1.600000000000023
  0
CIRCLE
  5
13D
330
1F
100
AcDbEntity
  8
0
  6
Continuous
 62
     7
370
    25
100
AcDbCircle
 10
-914.8798704177
 20
456.5025378824
 30
0.0
 40
1.59999999999809
  0
CIRCLE
  5
13E
330
1F
100
AcDbEntity
  8
0
  6
Continuous
 62
     7
370
    25
100
AcDbCircle
 10
-1141.0798704177
 20
485.0025378824
 30
0.0
 40
1.399999999999864
  0
CIRCLE
  5
13F
330
1F
100
AcDbEntity
  8
0
  6
Continuous
 62
     7
370
    25
100
AcDbCircle
 10
-1092.0798704177
 20
485.0025378824
 30
0.0
 40
1.399999999999864
  0
CIRCLE
  5
140
330
1F
100
AcDbEntity
  8
0
  6
Continuous
 62
     7
370
    25
100
AcDbCircle
 10
-1092.0798704177
 20
427.0025378824
 30
0.0
 40
1.400000000000091
  0
CIRCLE
  5
141
330
1F
100
AcDbEntity
  8
0
  6
Continuous
 62
     7
370
    25
100
AcDbCircle
 10
-901.0234639572
 20
448.5025378824
 30
0.0
 40
1.600000000000023
  0
CIRCLE
  5
142
330
1F
100
AcDbEntity
  8
0
  6
Continuous
 62
     7
370
    25
100
AcDbCircle
 10
-901.0234639572
 20
464.5025378824
 30
0.0
 40
1.599999999998204
  0
CIRCLE
  5
143
330
1F
100
AcDbEntity
  8
0
  6
Continuous
 62
     7
370
    25
100
AcDbCircle
 10
-1013.7362768783
 20
448.5025378824
 30
0.0
 40
1.600000000000364
  0
CIRCLE
  5
144
330
1F
100
AcDbEntity
  8
0
  6
Continuous
 62
     7
370
    25
100
AcDbCircle
 10
-999.8798704177
 20
456.5025378824
 30
0.0
 40
1.600000000000136
  0
CIRCLE
  5
146
330
1F
100
AcDbEntity
  8
0
  6
Continuous
 62
     7
370
    25
100
AcDbCircle
 10
-912.7048704112
 20
548.5025378824
 30
0.0
 40
2.400000000000091
  0
CIRCLE
  5
147
330
1F
100
AcDbEntity
  8
0
  6
Continuous
 62
     7
370
    25
100
AcDbCircle
 10
-937.7048704112
 20
548.5025378824
 30
0.0
 40
2.39999999999975
  0
CIRCLE
  5
148
330
1F
100
AcDbEntity
  8
0
  6
Continuous
 62
     7
370
    25
100
AcDbCircle
 10
-962.7048704112
 20
548.5025378824
 30
0.0
 40
2.39999999999975
  0
CIRCLE
  5
149
330
1F
100
AcDbEntity
  8
0
  6
Continuous
 62
     7
370
    25
100
AcDbCircle
 10
-987.7048704112
 20
548.5025378824
 30
0.0
 40
2.399999999999977
  0
CIRCLE
  5
14A
330
1F
100
AcDbEntity
  8
0
  6
Continuous
 62
     7
370
    25
100
AcDbCircle
 10
-1012.7048704112
 20
548.5025378824
 30
0.0
 40
2.399999999999977
  0
CIRCLE
  5
14B
330
1F
100
AcDbEntity
  8
0
  6
Continuous
 62
     7
370
    25
100
AcDbCircle
 10
-1037.7048704112
 20
548.5025378824
 30
0.0
 40
2.400000000000091
  0
CIRCLE
  5
14C
330
1F
100
AcDbEntity
  8
0
  6
Continuous
 62
     7
370
    25
100
AcDbCircle
 10
-1062.7048704112
 20
548.5025378824
 30
0.0
 40
2.400000000000091
  0
CIRCLE
  5
14D
330
1F
100
AcDbEntity
  8
0
  6
Continuous
 62
     7
370
    25
100
AcDbCircle
 10
-1087.7048704112
 20
548.5025378824
 30
0.0
 40
2.399999999999864
  0
CIRCLE
  5
14E
330
1F
100
AcDbEntity
  8
0
  6
Continuous
 62
     7
370
    25
100
AcDbCircle
 10
-1112.7048704112
 20
548.5025378824
 30
0.0
 40
2.399999999999864
  0
CIRCLE
  5
14F
330
1F
100
AcDbEntity
  8
0
  6
Continuous
 62
     7
370
    25
100
AcDbCircle
 10
-1137.7048704112
 20
548.5025378824
 30
0.0
 40
2.400000000000091
  0
CIRCLE
  5
150
330
1F
100
AcDbEntity
  8
0
  6
Continuous
 62
     7
370
    25
100
AcDbCircle
 10
-1162.7048704112
 20
548.5025378824
 30
0.0
 40
2.400000000000091
  0
CIRCLE
  5
151
330
1F
100
AcDbEntity
  8
0
  6
Continuous
 62
     7
370
    25
100
AcDbCircle
 10
-1037.7048704145
 20
174.2525378743
 30
0.0
 40
2.399999999999864
  0
CIRCLE
  5
152
330
1F
100
AcDbEntity
  8
0
  6
Continuous
 62
     7
370
    25
100
AcDbCircle
 10
-873.3298704129
 20
172.502537876
 30
0.0
 40
2.399999999999977
  0
CIRCLE
  5
153
330
1F
100
AcDbEntity
  8
0
  6
Continuous
 62
     7
370
    25
100
AcDbCircle
 10
-873.3298704112
 20
601.0025378824
 30
0.0
 40
2.399999999999864
  0
CIRCLE
  5
154
330
1F
100
AcDbEntity
  8
0
  6
Continuous
 62
     7
370
    25
100
AcDbCircle
 10
-1037.7048704145
 20
599.2525378771
 30
0.0
 40
2.399999999999864
  0
CIRCLE
  5
155
330
1F
100
AcDbEntity
  8
0
  6
Continuous
 62
     7
370
    25
100
AcDbCircle
 10
-1202.0798704177
 20
601.0025378824
 30
0.0
 40
2.399999999999636
  0
CIRCLE
  5
156
330
1F
100
AcDbEntity
  8
0
  6
Continuous
 62
     7
370
    25
100
AcDbCircle
 10
-1202.0798704177
 20
172.502537876
 30
0.0
 40
2.400000000000091
  0
LINE
  5
15A
330
1F
100
AcDbEntity
  8
0
  6
Continuous
 62
     7
370
    25
100
AcDbLine
 10
-868.3298704112
 20
167.502537876
 30
0.0
 11
-868.3298704112
 21
606.0025378824
 31
0.0
  0
LINE
  5
15B
330
1F
100
AcDbEntity
  8
0
  6
Continuous
 62
     7
370
    25
100
AcDbLine
 10
-1207.0798704177
 20
167.502537876
 30
0.0
 11
-868.3298704112
 21
167.502537876
 31
0.0
  0
LINE
  5
15C
330
1F
100
AcDbEntity
  8
0
  6
Continuous
 62
     7
370
    25
100
AcDbLine
 10
-1207.0798704177
 20
167.502537876
 30
0.0
 11
-1207.0798704177
 21
606.0025378824
 31
0.0
  0
LINE
  5
15D
330
1F
100
AcDbEntity
  8
0
  6
Continuous
 62
     7
370
    25
100
AcDbLine
 10
-1207.0798704177
 20
606.0025378824
 30
0.0
 11
-868.3298704112
 21
606.0025378824
 31
0.0
  0
MTEXT
  5
15F
330
1F
100
AcDbEntity
  8
0
  6
Continuous
 62
     7
100
AcDbMText
 10
-1207.0798704177
 20
166.4829714843
 30
0.0
 40
4.83362
 41
0.0
 71
     1
 72
     1
  1
SOLIDWORKS Educational Product.
  7
SLDTEXTSTYLE0
 73
     1
 44
1.0
  0
MTEXT
  5
160
330
1F
100
AcDbEntity
  8
0
  6
Continuous
 62
     7
100
AcDbMText
 10
-1207.0798704177
 20
159.2325414843
 30
0.0
 40
4.83362
 41
0.0
 71
     1
 72
     1
  1
For Instructional Use Only.
  7
SLDTEXTSTYLE0
 73
     1
 44
1.0
  0
ENDSEC
  0
SECTION
  2
OBJECTS
  0
DICTIONARY
  5
C
330
0
100
AcDbDictionary
281
     1
  3
ACAD_GROUP
350
D
  3
ACAD_LAYOUT
350
1A
  3
ACAD_MLINESTYLE
350
17
  3
ACAD_PLOTSETTINGS
350
19
  3
ACAD_PLOTSTYLENAME
350
E
  3
ACAD_SCALELIST
350
47
  0
DICTIONARY
  5
D
102
{ACAD_REACTORS
330
C
102
}
330
C
100
AcDbDictionary
281
     1
  0
DICTIONARY
  5
1A
102
{ACAD_REACTORS
330
C
102
}
330
C
100
AcDbDictionary
281
     1
  3
Layout1
350
1E
  3
Layout2
350
26
  3
Model
350
22
  0
DICTIONARY
  5
17
102
{ACAD_REACTORS
330
C
102
}
330
C
100
AcDbDictionary
281
     1
  3
Standard
350
18
  0
DICTIONARY
  5
19
102
{ACAD_REACTORS
330
C
102
}
330
C
100
AcDbDictionary
281
     1
  0
ACDBDICTIONARYWDFLT
  5
E
102
{ACAD_REACTORS
330
C
102
}
330
C
100
AcDbDictionary
281
     1
  3
Normal
350
F
100
AcDbDictionaryWithDefault
340
F
  0
DICTIONARY
  5
47
102
{ACAD_REACTORS
330
C
102
}
330
C
100
AcDbDictionary
281
     1
  3
A0
350
48
  3
A1
350
49
  3
A2
350
4A
  3
A3
350
4B
  3
A4
350
4C
  3
A5
350
4D
  3
A6
350
4E
  3
A7
350
4F
  3
A8
350
50
  3
A9
350
51
  3
B0
350
52
  3
B1
350
53
  3
B2
350
54
  3
B3
350
55
  3
B4
350
56
  3
B5
350
57
  3
B6
350
58
  3
B7
350
59
  3
B8
350
5A
  3
B9
350
5B
  3
C0
350
5C
  3
C1
350
5D
  3
C2
350
5E
  3
C3
350
5F
  3
C4
350
60
  3
C5
350
61
  3
C6
350
62
  3
C7
350
63
  3
C8
350
64
  3
C9
350
65
  3
D0
350
66
  3
D1
350
67
  3
D2
350
68
  0
LAYOUT
  5
1E
102
{ACAD_REACTORS
330
1A
102
}
330
1A
100
AcDbPlotSettings
  1

  2
none_device
  4

  6

 40
0.0
 41
0.0
 42
0.0
 43
0.0
 44
0.0
 45
0.0
 46
0.0
 47
0.0
 48
0.0
 49
0.0
140
0.0
141
0.0
142
1.0
143
1.0
 70
   688
 72
     1
 73
     0
 74
     5
  7

 75
    16
147
1.0
148
0.0
149
0.0
100
AcDbLayout
  1
Layout1
 70
     1
 71
     1
 10
0.0
 20
0.0
 11
420.0
 21
297.0
 12
0.0
 22
0.0
 32
0.0
 14
1.0000000000E+20
 24
1.0000000000E+20
 34
1.0000000000E+20
 15
-1.0000000000E+20
 25
-1.0000000000E+20
 35
-1.0000000000E+20
146
0.0
 13
0.0
 23
0.0
 33
0.0
 16
1.0
 26
0.0
 36
0.0
 17
0.0
 27
1.0
 37
0.0
 76
     0
330
1B
  0
LAYOUT
  5
26
102
{ACAD_REACTORS
330
1A
102
}
330
1A
100
AcDbPlotSettings
  1

  2
none_device
  4

  6

 40
0.0
 41
0.0
 42
0.0
 43
0.0
 44
0.0
 45
0.0
 46
0.0
 47
0.0
 48
0.0
 49
0.0
140
0.0
141
0.0
142
1.0
143
1.0
 70
   688
 72
     1
 73
     0
 74
     5
  7

 75
    16
147
1.0
148
0.0
149
0.0
100
AcDbLayout
  1
Layout2
 70
     1
 71
     2
 10
0.0
 20
0.0
 11
0.0
 21
0.0
 12
0.0
 22
0.0
 32
0.0
 14
0.0
 24
0.0
 34
0.0
 15
0.0
 25
0.0
 35
0.0
146
0.0
 13
0.0
 23
0.0
 33
0.0
 16
1.0
 26
0.0
 36
0.0
 17
0.0
 27
1.0
 37
0.0
 76
     0
330
23
  0
LAYOUT
  5
22
102
{ACAD_REACTORS
330
1A
102
}
330
1A
100
AcDbPlotSettings
  1

  2
none_device
  4
ANSI_A_(11.00_x_8.50_Inches)
  6

 40
6.35
 41
19.05
 42
6.35000508
 43
19.05000254
 44
279.4
 45
215.9
 46
639.1654517452
 47
-99.6173882658
 48
0.0
 49
0.0
140
0.0
141
0.0
142
0.0191904219
143
1.0
 70
  1696
 72
     0
 73
     0
 74
     0
  7

 75
     0
147
0.0179189148
148
-1300.4909072572
149
0.0
100
AcDbLayout
  1
Model
 70
     1
 71
     0
 10
0.0
 20
0.0
 11
420.0
 21
297.0
 12
0.0
 22
0.0
 32
0.0
 14
-1207.0798704177
 24
167.502537876
 34
0.0
 15
-868.3298704112
 25
606.0025378824
 35
0.0
146
0.0
 13
0.0
 23
0.0
 33
0.0
 16
1.0
 26
0.0
 36
0.0
 17
0.0
 27
1.0
 37
0.0
 76
     0
330
1F
331
29
  0
MLINESTYLE
  5
18
102
{ACAD_REACTORS
330
17
102
}
330
17
100
AcDbMlineStyle
  2
Standard
 70
     0
  3

 62
   256
 51
90.0
 52
90.0
 71
     2
 49
0.5
 62
   256
  6
BYLAYER
 49
-0.5
 62
   256
  6
BYLAYER
  0
ACDBPLACEHOLDER
  5
F
102
{ACAD_REACTORS
330
E
102
}
330
E
  0
SCALE
  5
48
102
{ACAD_REACTORS
330
47
102
}
330
47
100
AcDbScale
 70
     0
300
1:1
140
1.0
141
1.0
290
     1
  0
SCALE
  5
49
102
{ACAD_REACTORS
330
47
102
}
330
47
100
AcDbScale
 70
     0
300
1:2
140
1.0
141
2.0
290
     0
  0
SCALE
  5
4A
102
{ACAD_REACTORS
330
47
102
}
330
47
100
AcDbScale
 70
     0
300
1:4
140
1.0
141
4.0
290
     0
  0
SCALE
  5
4B
102
{ACAD_REACTORS
330
47
102
}
330
47
100
AcDbScale
 70
     0
300
1:5
140
1.0
141
5.0
290
     0
  0
SCALE
  5
4C
102
{ACAD_REACTORS
330
47
102
}
330
47
100
AcDbScale
 70
     0
300
1:8
140
1.0
141
8.0
290
     0
  0
SCALE
  5
4D
102
{ACAD_REACTORS
330
47
102
}
330
47
100
AcDbScale
 70
     0
300
1:10
140
1.0
141
10.0
290
     0
  0
SCALE
  5
4E
102
{ACAD_REACTORS
330
47
102
}
330
47
100
AcDbScale
 70
     0
300
1:16
140
1.0
141
16.0
290
     0
  0
SCALE
  5
4F
102
{ACAD_REACTORS
330
47
102
}
330
47
100
AcDbScale
 70
     0
300
1:20
140
1.0
141
20.0
290
     0
  0
SCALE
  5
50
102
{ACAD_REACTORS
330
47
102
}
330
47
100
AcDbScale
 70
     0
300
1:30
140
1.0
141
30.0
290
     0
  0
SCALE
  5
51
102
{ACAD_REACTORS
330
47
102
}
330
47
100
AcDbScale
 70
     0
300
1:40
140
1.0
141
40.0
290
     0
  0
SCALE
  5
52
102
{ACAD_REACTORS
330
47
102
}
330
47
100
AcDbScale
 70
     0
300
1:50
140
1.0
141
50.0
290
     0
  0
SCALE
  5
53
102
{ACAD_REACTORS
330
47
102
}
330
47
100
AcDbScale
 70
     0
300
1:100
140
1.0
141
100.0
290
     0
  0
SCALE
  5
54
102
{ACAD_REACTORS
330
47
102
}
330
47
100
AcDbScale
 70
     0
300
2:1
140
2.0
141
1.0
290
     0
  0
SCALE
  5
55
102
{ACAD_REACTORS
330
47
102
}
330
47
100
AcDbScale
 70
     0
300
4:1
140
4.0
141
1.0
290
     0
  0
SCALE
  5
56
102
{ACAD_REACTORS
330
47
102
}
330
47
100
AcDbScale
 70
     0
300
8:1
140
8.0
141
1.0
290
     0
  0
SCALE
  5
57
102
{ACAD_REACTORS
330
47
102
}
330
47
100
AcDbScale
 70
     0
300
10:1
140
10.0
141
1.0
290
     0
  0
SCALE
  5
58
102
{ACAD_REACTORS
330
47
102
}
330
47
100
AcDbScale
 70
     0
300
100:1
140
100.0
141
1.0
290
     0
  0
SCALE
  5
59
102
{ACAD_REACTORS
330
47
102
}
330
47
100
AcDbScale
 70
     0
300
1/128" = 1'-0"
140
0.0078125
141
12.0
290
     0
  0
SCALE
  5
5A
102
{ACAD_REACTORS
330
47
102
}
330
47
100
AcDbScale
 70
     0
300
1/64" = 1'-0"
140
0.015625
141
12.0
290
     0
  0
SCALE
  5
5B
102
{ACAD_REACTORS
330
47
102
}
330
47
100
AcDbScale
 70
     0
300
1/32" = 1'-0"
140
0.03125
141
12.0
290
     0
  0
SCALE
  5
5C
102
{ACAD_REACTORS
330
47
102
}
330
47
100
AcDbScale
 70
     0
300
1/16" = 1'-0"
140
0.0625
141
12.0
290
     0
  0
SCALE
  5
5D
102
{ACAD_REACTORS
330
47
102
}
330
47
100
AcDbScale
 70
     0
300
3/32" = 1'-0"
140
0.09375
141
12.0
290
     0
  0
SCALE
  5
5E
102
{ACAD_REACTORS
330
47
102
}
330
47
100
AcDbScale
 70
     0
300
1/8" = 1'-0"
140
0.125
141
12.0
290
     0
  0
SCALE
  5
5F
102
{ACAD_REACTORS
330
47
102
}
330
47
100
AcDbScale
 70
     0
300
3/16" = 1'-0"
140
0.1875
141
12.0
290
     0
  0
SCALE
  5
60
102
{ACAD_REACTORS
330
47
102
}
330
47
100
AcDbScale
 70
     0
300
1/4" = 1'-0"
140
0.25
141
12.0
290
     0
  0
SCALE
  5
61
102
{ACAD_REACTORS
330
47
102
}
330
47
100
AcDbScale
 70
     0
300
3/8" = 1'-0"
140
0.375
141
12.0
290
     0
  0
SCALE
  5
62
102
{ACAD_REACTORS
330
47
102
}
330
47
100
AcDbScale
 70
     0
300
1/2" = 1'-0"
140
0.5
141
12.0
290
     0
  0
SCALE
  5
63
102
{ACAD_REACTORS
330
47
102
}
330
47
100
AcDbScale
 70
     0
300
3/4" = 1'-0"
140
0.75
141
12.0
290
     0
  0
SCALE
  5
64
102
{ACAD_REACTORS
330
47
102
}
330
47
100
AcDbScale
 70
     0
300
1" = 1'-0"
140
1.0
141
12.0
290
     0
  0
SCALE
  5
65
102
{ACAD_REACTORS
330
47
102
}
330
47
100
AcDbScale
 70
     0
300
1-1/2" = 1'-0"
140
1.5
141
12.0
290
     0
  0
SCALE
  5
66
102
{ACAD_REACTORS
330
47
102
}
330
47
100
AcDbScale
 70
     0
300
3" = 1'-0"
140
3.0
141
12.0
290
     0
  0
SCALE
  5
67
102
{ACAD_REACTORS
330
47
102
}
330
47
100
AcDbScale
 70
     0
300
6" = 1'-0"
140
6.0
141
12.0
290
     0
  0
SCALE
  5
68
102
{ACAD_REACTORS
330
47
102
}
330
47
100
AcDbScale
 70
     0
300
1'-0" = 1'-0"
140
12.0
141
12.0
290
     0
  0
ENDSEC
  0
EOF
