<?xml version="1.0" encoding="iso-8859-1"?>
<!-- Generator: Adobe Illustrator 19.0.0, SVG Export Plug-In . SVG Version: 6.00 Build 0)  -->
<svg version="1.1" id="Capa_1" xmlns="http://www.w3.org/2000/svg" xmlns:xlink="http://www.w3.org/1999/xlink" x="0px" y="0px"
	 viewBox="0 0 348.838 348.838" style="enable-background:new 0 0 348.838 348.838;" xml:space="preserve">
<g>
	<path style="fill:#7ECE29;" d="M143.238,230.419c77.2,2.8,72-97.2,72-97.2l-2.4-2.8c0,0-100-5.2-97.2,72l1.2,26.4L143.238,230.419z
		"/>
	<path style="fill:#7ECE29;" d="M342.838,209.219v-69.6h-40.4c-2.8-11.2-7.2-21.6-12.8-31.2l28.4-28.4l-49.2-49.2l-28.4,28.4
		c-9.6-5.6-20-10-31.2-12.8v-40.4h-69.6v40.4c-11.2,2.8-21.6,7.2-31.2,12.8l-28.4-28.4l-49.2,49.2l28.4,28.4
		c-5.6,9.6-10,20-12.8,31.2h-40.4v69.6h40.4c2.8,11.2,7.2,21.6,12.8,31.2l-28.4,28.4l49.2,49.2l28.4-28.4c9.6,5.6,20,10,31.2,12.8
		v40.4h69.6v-40.4c11.2-2.8,21.6-7.2,31.2-12.8l28.4,28.4l49.2-49.2l-28.4-28.4c5.6-9.6,10-20,12.8-31.2H342.838z M174.438,263.619
		c-49.2,0-89.2-40-89.2-89.2s40-89.2,89.2-89.2s89.2,40,89.2,89.2S223.638,263.619,174.438,263.619z"/>
</g>
<g>
	<path style="fill:#001B01;" d="M6.038,215.619h35.6c2.4,8,5.6,16,9.6,23.6l-24.8,25.2c-1.2,1.2-2,2.8-2,4.4s0.8,3.2,2,4.4
		l49.2,49.2c2.4,2.4,6.8,2.4,9.2,0l25.2-25.2c7.6,4,15.2,7.2,23.6,9.6v35.6c0,3.6,2.8,6.4,6.4,6.4h69.6c3.6,0,6.4-2.8,6.4-6.4v-35.6
		c8-2.4,16-5.6,23.6-9.6l25.2,25.2c2.4,2.4,6.8,2.4,9.2,0l48.4-49.2c1.2-1.2,2-2.8,2-4.4s-0.8-3.2-2-4.4l-25.2-25.2
		c4-7.6,7.2-15.2,9.6-23.6h35.6c3.6,0,6.4-2.8,6.4-6.4v-69.6c0-3.6-2.8-6.4-6.4-6.4h-35.6c-2.4-8-5.6-16-9.6-23.6l25.2-25.2
		c2.4-2.4,2.4-6.8,0-9.2l-49.2-48.8c-1.2-1.2-2.8-2-4.4-2s-3.2,0.8-4.4,2l-25.2,25.2c-7.6-4-15.2-7.2-23.6-9.6v-35.6
		c0-3.6-2.8-6.4-6.4-6.4h-69.6c-3.6,0-6.4,2.8-6.4,6.4v35.6c-8,2.4-16,5.6-23.6,9.6l-25.2-25.2c-1.2-1.2-2.8-2-4.4-2
		c-1.6,0-3.2,0.8-4.4,2l-49.2,49.2c-1.2,1.2-2,2.8-2,4.4c0,1.6,0.8,3.2,2,4.4l25.2,25.2c-4,7.6-7.2,15.2-9.6,23.6h-35.6
		c-3.6,0-6.4,2.8-6.4,6.4v69.6C-0.362,212.819,2.438,215.619,6.038,215.619z M12.438,146.019h34c2.8,0,5.6-2,6.4-4.8
		c2.8-10.4,6.8-20.4,12.4-29.6c1.6-2.4,1.2-5.6-1.2-7.6l-24-24l40-40l24,24c2,2,5.2,2.4,7.6,1.2c9.2-5.2,19.2-9.6,29.6-12.4
		c2.8-0.8,4.8-3.2,4.8-6.4v-34h56.8v34c0,2.8,2,5.6,4.8,6.4c10.4,2.8,20.4,6.8,29.6,12.4c2.4,1.6,5.6,1.2,8-1.2l24-24l40,40l-24,24
		c-2,2-2.4,5.2-1.2,7.6c5.2,9.2,9.2,19.2,12.4,29.6c0.8,2.8,3.2,4.8,6.4,4.8h34v56.8h-34.4c-2.8,0-5.6,2-6.4,4.8
		c-2.8,10.4-6.8,20.4-12.4,29.6c-1.6,2.4-1.2,5.6,1.2,7.6l24,24l-40,40l-24-24c-2-2-5.2-2.4-8-1.2c-9.2,5.2-19.2,9.2-29.6,12.4
		c-2.8,0.8-4.8,3.2-4.8,6.4v34h-56.4v-34c0-2.8-2-5.6-4.8-6.4c-10.4-2.8-20.4-6.8-29.6-12.4c-2.4-1.6-5.6-1.2-8,1.2l-24,24l-40-40
		l24-24c2-2,2.4-5.2,1.2-7.6c-5.2-9.2-9.2-19.2-12.4-29.6c-0.8-2.8-3.2-4.8-6.4-4.8h-34v-56.8H12.438z"/>
	<path style="fill:#001B01;" d="M174.438,270.019c52.8,0,95.6-42.8,95.6-95.6s-42.8-95.6-95.6-95.6s-95.6,42.8-95.6,95.6
		S121.638,270.019,174.438,270.019z M122.038,202.419c-0.4-17.2,4.4-30.8,14.4-41.6c21.6-22.4,60.8-24,72.4-24l0,0
		c0,11.6-1.6,49.2-22.4,70.8c-10,10.8-23.6,16-40.4,16l0,0c-0.8,0-2,0-2.8,0l-12-0.8l38.4-38.4c2.4-2.4,2.4-6.8,0-9.2
		c-2.4-2.4-6.8-2.4-9.2,0l-38,38.8L122.038,202.419z M174.438,91.619c45.6,0,82.8,37.2,82.8,82.8s-37.2,82.8-82.8,82.8
		c-21.6,0-40.8-8.4-55.6-21.6l24.4,1.2c1.2,0,2,0,3.2,0c20.4,0,37.2-6.8,49.6-20c28.4-30,26-81.6,26-84c0-1.6-0.8-3.2-2-4.4
		l-2.4-2.4c-1.2-1.2-2.8-2-4.4-2c0,0-1.6,0-4,0c-12.8,0-56.8,2-82,28c-12.8,13.2-18.8,30.4-18,51.2l1.2,23.6
		c-11.6-14.4-18.8-32.4-18.8-52.4C91.638,128.819,128.838,91.619,174.438,91.619z"/>
</g>
<g>
</g>
<g>
</g>
<g>
</g>
<g>
</g>
<g>
</g>
<g>
</g>
<g>
</g>
<g>
</g>
<g>
</g>
<g>
</g>
<g>
</g>
<g>
</g>
<g>
</g>
<g>
</g>
<g>
</g>
</svg>
